<?xml version="1.0" encoding="UTF-8"?>
<svg id="Object" xmlns="http://www.w3.org/2000/svg" xmlns:xlink="http://www.w3.org/1999/xlink" version="1.1" viewBox="0 0 500 500">
  <!-- Generator: Adobe Illustrator 30.1.0, SVG Export Plug-In . SVG Version: 2.1.1 Build 136)  -->
  <defs>
    <style>
      .st0 {
        fill: none;
      }

      .st1 {
        fill: #35356d;
      }

      .st2 {
        fill: #ffc9c0;
      }

      .st3 {
        fill: #e9e4f2;
      }

      .st4 {
        clip-path: url(#clippath-1);
      }

      .st5 {
        fill: #e27169;
      }

      .st6 {
        fill: #ffaa9f;
      }

      .st7 {
        clip-path: url(#clippath);
      }
    </style>
    <clipPath id="clippath">
      <circle class="st0" cx="250" cy="250" r="250"/>
    </clipPath>
    <clipPath id="clippath-1">
      <circle class="st0" cx="250" cy="250" r="250"/>
    </clipPath>
  </defs>
  <g class="st7">
    <circle class="st3" cx="250" cy="255.2" r="262.6"/>
  </g>
  <g class="st4">
    <g>
      <g>
        <ellipse class="st1" cx="152.2" cy="207" rx="47.1" ry="60.8" transform="translate(-18.6 15) rotate(-5.3)"/>
        <path class="st1" d="M328.2,212.5c10.9,29.3-5.4,78.1-15.3,103-.6,1.5-4.3,1.7-4.1.2,1-8.7,1.8-21.2,1.4-37.6-.9-33.5-23.9-72.3-26.9-77.3-.2-.4,0-.8.4-1.2,4.6-4,30.8-24.2,44.6,12.8Z"/>
        <path class="st1" d="M153.8,196.9c-5.7-29.1,3.3-59.1,21.6-82,17-21.3,40.5-33.3,67.7-35.8,18.8-1.8,37.4,3.6,51.9,15.7,4.6,3.8,8.8,8.1,12.3,12.9.3.4,3.5,5.9,3.9,5.9,0,0,30.5-2.2,44.5,27.9,13.9,30.1-2.5,65.4-2.5,65.4-.2.9-.4,1.9-.6,2.8-2.3,3.6-3.9,5.6-3.9,5.6,0,0-120.6,119.4-132.5,89.8-12-29.6-47.5-38.2-62.1-106.3-.1-.6-.2-1.2-.4-1.7Z"/>
        <path class="st2" d="M304.6,149.6s-16.4,34.1-44.8,55.3c-28.4,21.2-47.8,14.9-53.3,11.2s-29.1-9.5-29.9,16.7c-.7,26.2,30.6,28.4,30.6,28.4v62.3s-43.3,21.7-43.3,21.7c0,0,22.4,39.9,86.7,49.3,64.3,9.5,68.2-48.6,68.2-48.6l-33.6-16.1v-28.9s37.6,4,55.1-18.7c17.4-22.7,5.5-103.1,5.5-103.1-14.2-16.9-41.1-29.4-41.1-29.4Z"/>
        <g>
          <path class="st5" d="M190.8,221.5c-1.8-.2-1.8,2.7,0,2.9,5.1.5,9.3,4.1,11.4,8.6,1.1,2.3,1.7,5,1.7,7.6,0,2.4-.6,5.5-3.2,6.5-1.7.7-.9,3.5.8,2.8,6.7-2.7,5.9-11.7,3.6-17.2-2.5-6-7.7-10.5-14.3-11.1h0Z"/>
          <path class="st5" d="M203,239.5c1,1.5,3.5.1,2.5-1.4-1.6-2.4-3.8-4.5-6.7-4.9-3.1-.4-5.8,1.6-8.2,3.4-.6.5-.9,1.2-.5,2,.4.6,1.3,1,2,.5,1.1-.8,2.2-1.5,3.3-2.2.9-.5,1.9-.9,3-.8,2.1.2,3.7,1.9,4.8,3.6h0Z"/>
        </g>
        <path class="st5" d="M285.2,300.8v35.1s-15.4-1.9-35.1-19.3c-19.7-17.4-24.2-47.7-24.2-47.7,0,0,9.2,10.8,25.7,21.3,16.4,10.6,33.6,10.5,33.6,10.5h0Z"/>
        <g>
          <ellipse class="st6" cx="336" cy="245.9" rx="12.5" ry="9.2"/>
          <ellipse class="st6" cx="277.1" cy="242.4" rx="18.3" ry="12"/>
        </g>
        <g>
          <ellipse class="st1" cx="331.6" cy="215.2" rx="4.7" ry="7.7"/>
          <ellipse class="st1" cx="279.5" cy="215" rx="5.7" ry="7.9"/>
          <path class="st5" d="M312.8,215.2c.5-1.8-2.3-2.5-2.8-.8-.8,2.8-1.1,5.9-.3,8.8.7,2.7,2.4,4.8,4.4,6.6,1,1,2.1,1.9,3.1,2.8.8.8,2.2,2.1,2.4,3.2s-1.7,2.4-2.5,3c-1.2.9-2.5,1.6-3.9,2.1-1.7.6-1,3.4.8,2.8,2.8-1.1,6-2.8,7.8-5.4,1.9-2.8-.4-5.7-2.4-7.6-2-2.1-4.6-3.8-6-6.3-1.6-2.8-1.3-6.2-.5-9.3h0Z"/>
        </g>
        <path class="st1" d="M332.8,200.9c-7.5-.3-11.1,5.2-12.5,3-1.4-2.3,3.8-8,13-8s9.5,3.7,10.6,5.7c.3.5-.2,1.1-.7.9-1.7-.5-5.3-1.4-10.4-1.6Z"/>
        <path class="st1" d="M281.2,195.9c-7.5-.3-11.1,5.2-12.5,3s3.8-8,13-8,9.5,3.7,10.6,5.7c.3.5-.2,1.1-.7.9-1.7-.5-5.3-1.4-10.4-1.6Z"/>
        <path class="st1" d="M204.5,212.1c-2.2,31.9,11.2,77.2,18.9,100.1.5,1.4,2.3.8,2.1-.7-1.5-8.6-3.2-20.9-4.8-37.4-3.3-33.9,3.9-77.9,4.8-83.6,0-.4,0-.8-.3-1.1-2.7-3-17.9-17.4-20.6,22.8Z"/>
        <path class="st5" d="M320.7,258c1.3-1.3-.7-3.3-2-2-3.5,3.3-8.3,5.1-13.1,4.8-4.7-.3-9.1-2.7-12.1-6.2-1.2-1.4-3.2.6-2,2,3.5,4.1,8.7,6.7,14.1,7.1,5.6.4,11.1-1.8,15.1-5.6h0Z"/>
        <path class="st5" d="M305.6,274.7c.4,0,.8-.2,1-.4.3-.3.4-.6.4-1,0-.4-.2-.8-.4-1-.1-.1-.3-.2-.5-.3-.2,0-.4-.1-.6-.1-.9-.1-1.7-.2-2.6-.3-.4,0-.8.2-1,.4-.3.3-.4.6-.4,1,0,.4.2.8.4,1,.1.1.3.2.5.3.2,0,.4.1.6.1.9.1,1.7.2,2.6.3h0Z"/>
        <rect class="st1" x="206.3" y="304" width="78.9" height="14.6" transform="translate(491.5 622.7) rotate(-180)"/>
      </g>
      <path class="st2" d="M374.3,384c17.6,25.8,22.7,116,22.7,116h-40.4c2.6-12.7,7.4-39.5,6.5-54.8-1.3-20.6-15.7-37.9-21.4-55.7-3.2-10-2.9-23.6-2-33.6,13.9,8,27.6,17.8,34.6,28.2Z"/>
      <path class="st2" d="M101.4,390.2c12-31,53.7-32,61.9,2.4,6.8,28.2,2.8,87,1.2,107.4h-75.5s1.7-78.1,12.4-109.8Z"/>
      <path class="st1" d="M188.2,332.9s26.4,47,73.5,47c47.1,0,36.3-44,36.3-44,0,0,21,8,41.6,19.9-.9,10-1.2,23.7,2,33.6,5.7,17.8,20.1,35.1,21.4,55.7,1,15.3-3.9,42.1-6.5,54.8h-192.1c1.6-20.4,5.6-79.2-1.2-107.4-8.3-34.4-49.9-33.4-61.9-2.4,10.7-31.7,86.8-57.3,86.8-57.3Z"/>
    </g>
  </g>
</svg>