<?xml version="1.0" encoding="UTF-8"?>
<svg id="Object" xmlns="http://www.w3.org/2000/svg" xmlns:xlink="http://www.w3.org/1999/xlink" viewBox="0 0 500 500">
  <defs>
    <style>
      .cls-1 {
        fill: none;
      }

      .cls-2 {
        fill: #35356d;
      }

      .cls-3 {
        fill: #c68b8b;
      }

      .cls-4 {
        fill: #1e1e47;
      }

      .cls-5 {
        fill: #bc4a55;
      }

      .cls-6 {
        clip-path: url(#clippath-1);
      }

      .cls-7 {
        fill: #fff;
      }

      .cls-8 {
        fill: #c67f7d;
      }

      .cls-9 {
        fill: #fff9ae;
      }

      .cls-10 {
        fill: #e27169;
      }

      .cls-11 {
        fill: #9b4b4b;
      }

      .cls-12 {
        clip-path: url(#clippath);
      }
    </style>
    <clipPath id="clippath">
      <circle class="cls-1" cx="250" cy="250" r="250"/>
    </clipPath>
    <clipPath id="clippath-1">
      <circle class="cls-1" cx="250" cy="250" r="250"/>
    </clipPath>
  </defs>
  <g class="cls-12">
    <circle class="cls-9" cx="250" cy="246.3" r="271.5"/>
  </g>
  <g class="cls-6">
    <path class="cls-4" d="M301.56,340.22c-10.4,34.1-148.4-120.9-148.4-120.9,0,0-28.9,3.8-33.3-13.9s20.2-26.2,20.2-26.2c0,0-32.4-13.9-23.5-38.2s38.1-12,38.1-12c0,0,5.9-40.8,37.6-37.1,31.8,3.7,40.6,24.1,40.6,24.1,0,0,23.4-29,54.6-20.2,31.2,8.9,32.2,44,32.2,44,0,0,34.5-.1,44.7,25.5,10.2,25.5-9.5,49.8-9.5,49.8,0,0,26.2,21.3,12.8,45.2-13.4,24-55.5,45.9-65.9,80l-.2-.1Z"/>
    <path class="cls-4" d="M191.48,340.32c-10.4-34.1-52.5-56-65.9-80-13.4-23.9,24.49-42.88,24.49-42.88,0,0-1.29-16.67,8.91-42.17,10.2-25.6,14.6-35.45,14.6-35.45,0,0,7.86,6.29,39.06-2.61,31.2-8.8,47.74-21.19,47.74-21.19,0,0,.86,19.75,32.66,16.05,31.7-3.7,6.17,25.71,6.17,25.71,0,0,20.93-16.41,29.83,7.89s24.14,13.55,24.14,13.55c0,0-6.37-6.56-10.77,11.14s-2.33,28.96-2.33,28.96c0,0-138,155-148.4,120.9l-.2.1Z"/>
    <g>
      <g>
        <g>
          <path class="cls-8" d="M70.8,500s6.7-68,32-89c6-5.1,14.5-9.5,24-13.5,14.8-6.2,32.1-11.4,46.7-16,11.9-3.8,22-7.2,27.4-10.5,1.5-.9,2.7-1.9,3.4-2.8,8.3-10.9,7-55.8,7-55.8l38.7,4.9,38.7-4.9s-1.3,44.9,7,55.8c.8,1,2.2,2,4,3.1,5.5,3.2,15.3,6.5,26.8,10.1,14.6,4.6,31.9,9.8,46.7,16,9.6,4,18,8.5,24.1,13.5,25.3,21,32,89.1,32,89.1H70.9s-.1,0-.1,0Z"/>
          <path class="cls-11" d="M210.9,336.3c.7-12.6.4-23.9.4-23.9l38.7,4.9,38.7-4.9s-.3,12.2.5,25.4c-11.1,4.5-22.4,7.1-37.3,7.1s-28.9-3.1-40.9-8.6h-.1Z"/>
        </g>
        <path class="cls-2" d="M117.1,500c1.5-3.6,3.5-7.3,5.9-10.9,9-13.3,12.5-18.2,11.7-34.5-.5-10.5-4.8-38.5-7.8-57.1,14.8-6.2,32.1-11.4,46.7-16,1.8,17.2,8.3,49,31.3,56,32,9.8,45.2,7.1,45.2,7.1,0,0,13.2,2.7,45.2-7.1,23.1-7.1,29.5-38.8,31.3-56,14.6,4.6,31.9,9.8,46.7,16-3,18.6-7.3,46.6-7.8,57.1-.8,16.3,2.7,21.2,11.7,34.5,2.4,3.5,4.3,7.3,5.9,10.9H117.1s0,0,0,0Z"/>
        <g>
          <path class="cls-11" d="M382.26,450.9h0c1.2-1.4-.8-3.4-2-2-5.5,6.4-9.8,13.7-13,21.6-.3.8.3,1.6,1,1.8.8.2,1.5-.3,1.8-1,3-7.4,7.1-14.3,12.3-20.4h-.1Z"/>
          <path class="cls-11" d="M122.6,453.2h0c-.9-1.7-3.4-.2-2.5,1.4,3.6,6.4,6.9,13,9.7,19.8.3.7,1,1.2,1.8,1,.7-.2,1.3-1.1,1-1.8-2.9-7-6.2-13.9-10-20.5v.1Z"/>
          <path class="cls-11" d="M309.7,389.6h0c1.8,0,1.8-2.9,0-2.9-8.7-.3-17.3-.5-26-.7-2.2-.1-4.4-.2-6.6-.2-1.8-.1-3.8-.4-5.5.1-3.1.8-3.9,4.1-6.2,6-1.5,1.1.6,3.2,2,2,1.9-1.6,2.9-5.2,5.7-5.4,1.9-.2,4,.1,5.9.1,2,.1,4.1.2,6.1.2,8.1.2,16.3.4,24.5.6l.1.2Z"/>
          <path class="cls-11" d="M234.4,391.7h0c0,1.8,2.9,1.8,2.9,0,0-2.5-1.3-4.6-3.3-6-2.2-1.4-5-1.6-7.5-1.7-6.2-.2-12.5-.5-18.8-.7-1.8,0-1.8,2.9,0,2.9,5.3.2,10.7.4,16,.6,3.5.2,10.7-.3,10.7,5v-.1Z"/>
        </g>
      </g>
      <g>
        <g>
          <ellipse class="cls-3" cx="340.28" cy="257.54" rx="27.8" ry="22.9" transform="translate(19.09 538.53) rotate(-78.3)"/>
          <g>
            <path class="cls-11" d="M348.8,244.5h0c1.8-.4,1-3.1-.8-2.8-5.8,1-9.7,5.9-11.7,11.1-2.3,6-2.7,12.9-1.9,19.2.3,1.8,3.1,1.8,2.9,0-.7-5.8-.4-11.8,1.4-17.3,1.6-4.8,4.8-9.3,10.1-10.3v.1Z"/>
            <path class="cls-11" d="M337,255.6h0c-.7,0-1.4.7-1.4,1.4,0,.7.6,1.4,1.4,1.4,1.2,0,2.7-.4,3.8-.6,1.2-.1,2,.1,2.9.9,1.6,1.4,2.5,3.5,2.1,5.4-.2.8.2,1.6,1,1.8s1.6-.2,1.8-1c.7-3-.5-6-2.7-8.1-1.3-1.2-2.7-1.9-4.5-1.9-1.5.1-3,.7-4.4.7h0Z"/>
          </g>
        </g>
        <g>
          <ellipse class="cls-3" cx="160.63" cy="257.69" rx="22.9" ry="27.8" transform="translate(-48.92 37.93) rotate(-11.7)"/>
          <g>
            <path class="cls-11" d="M153,241.5h0c-1.8-.3-2.6,2.5-.8,2.8,5.3.9,8.5,5.5,10.1,10.3,1.8,5.6,2.1,11.6,1.4,17.3-.2,1.8,2.7,1.8,2.9,0,.8-6.3.4-13.2-1.9-19.2-2-5.2-5.9-10-11.7-11.1v-.1Z"/>
            <path class="cls-11" d="M164.1,258.6h0c.7.1,1.4-.6,1.4-1.4s-.6-1.4-1.4-1.4c-1.4-.1-3-.7-4.5-.7-1.7,0-3.2.7-4.4,1.9-2.1,2-3.4,5.1-2.7,8.1.2.8,1.1,1.2,1.8,1,.8-.2,1.2-1,1-1.8v-.5c0,.3,0-.2,0-.2v-.9h0v-.2c.1-.2.1-.3.1-.5,0-.3.2-.6.2-.8-.1.2.1-.2.1-.2,0-.1.2-.3.2-.4.1-.3.2-.5.4-.7.2-.4.6-.8,1-1.2.9-.9,1.7-1.1,2.9-.9,1.1.1,2.5.6,3.8.6l.1.2Z"/>
          </g>
        </g>
      </g>
      <g>
        <path class="cls-8" d="M166.9,217.9c86.5-.8,71.2-61.9,71.2-61.9,48.7-.7,47.2,26.2,63.2,46.7,9.5,12.3,22.9,15,32,15.2v28.4c0,45.9-37.3,83.2-83.2,83.2s-83.2-37.2-83.2-83.2v-28.4s0,0,0,0Z"/>
        <g>
          <ellipse class="cls-4" cx="289.7" cy="236.1" rx="5.7" ry="9"/>
          <ellipse class="cls-4" cx="215.4" cy="236.1" rx="5.7" ry="9"/>
        </g>
        <path class="cls-11" d="M254.2,236.7h0c.5-1.8-2.3-2.6-2.8-.8-1,3.4-1.5,6.7-.3,10.1,1.1,3.1,2.8,6.1,4.7,8.9.9,1.4,2,2.7,3,4,.9,1.1,1.9,2.4,2.1,3.9.2,1.7-1.3,3-2.4,4.1-1.2,1.2-2.5,2.4-3.8,3.4-1.5,1.1-.1,3.6,1.4,2.5,1.4-1.1,2.8-2.2,4.1-3.5,1.1-1.2,2.4-2.5,3.1-4,1.3-3.2-.9-6.2-2.8-8.6-2.3-2.8-4.3-6-5.9-9.3-.7-1.6-1.4-3.3-1.5-5.1-.1-1.9.4-3.8.9-5.6h.2Z"/>
        <g>
          <path class="cls-5" d="M231.9,285.7c0-.8.5-1.6,1.2-1.8.2-.1.4-.1.6-.1h41.6c1,0,1.7.9,1.7,1.9-.4,5.2-2.6,9.9-5.9,13.5-4.1,4.5-9.9,7.3-16.6,7.3s-12.8-2.9-16.9-7.6c-3.1-3.5-5.2-8.1-5.6-13.1l-.1-.1Z"/>
          <path class="cls-7" d="M233.8,283.9h41.3c-5,3.5-12.6,5.7-21,5.7s-15.9-2.2-20.9-5.6c.2-.1.4-.1.6-.1Z"/>
          <path class="cls-10" d="M237.5,298.9c4.5-2,10.2-3.2,16.4-3.2s12.5,1.3,17.2,3.5c-4.1,4.5-9.9,7.3-16.6,7.3s-12.8-2.9-16.9-7.6h-.1Z"/>
        </g>
        <g>
          <path class="cls-4" d="M305,207.6c-1.9-.5-5.9-1.4-11.6-1.6-8.4-.3-12.4,5.4-14,3.1s7.1-8.2,14.5-8.2,10.6,3.7,11.8,5.8c.3.6-.1,1.2-.7,1v-.1Z"/>
          <path class="cls-4" d="M229.2,207.6c-1.9-.5-5.9-1.4-11.6-1.6-8.4-.3-12.4,5.4-14,3.1s7.1-8.2,14.5-8.2,10.6,3.7,11.8,5.8c.3.6-.1,1.2-.7,1v-.1Z"/>
        </g>
        <g>
          <ellipse class="cls-11" cx="299.1" cy="263.1" rx="17.3" ry="12.8"/>
          <ellipse class="cls-11" cx="209.1" cy="263.1" rx="17.3" ry="12.8"/>
        </g>
      </g>
    </g>
  </g>
</svg>