<?xml version="1.0" encoding="UTF-8"?>
<svg id="Object" xmlns="http://www.w3.org/2000/svg" xmlns:xlink="http://www.w3.org/1999/xlink" version="1.1" viewBox="0 0 500 500">
  <!-- Generator: Adobe Illustrator 30.1.0, SVG Export Plug-In . SVG Version: 2.1.1 Build 136)  -->
  <defs>
    <style>
      .st0 {
        fill: none;
      }

      .st1 {
        fill: #ff4f4d;
      }

      .st2 {
        fill: #1e1e47;
      }

      .st3 {
        fill: #aa2b46;
      }

      .st4 {
        fill: #db3a58;
      }

      .st5 {
        fill: #ffc9c0;
      }

      .st6 {
        clip-path: url(#clippath-1);
      }

      .st7 {
        fill: #fff;
      }

      .st8 {
        fill: #e2bab5;
      }

      .st9 {
        fill: #ff9f9f;
      }

      .st10 {
        fill: #e27169;
      }

      .st11 {
        clip-path: url(#clippath);
      }

      .st12 {
        fill: #f4e4e4;
      }

      .st13 {
        fill: #ff9a41;
      }
    </style>
    <clipPath id="clippath">
      <circle class="st0" cx="250" cy="250" r="250"/>
    </clipPath>
    <clipPath id="clippath-1">
      <circle class="st0" cx="250" cy="250" r="250"/>
    </clipPath>
  </defs>
  <g class="st11">
    <circle class="st12" cx="253.9" cy="248.4" r="277.5"/>
  </g>
  <g class="st6">
    <g>
      <g>
        <path class="st13" d="M220.8,175.5l-30.4,150.4s-26-40.1-35.8-61.7c-9.8-21.7-12.3-65.5-12.3-65.5l78.4-23.1Z"/>
        <path class="st1" d="M142.4,198.6s-9.1-102.8,90.2-120.2c99.3-17.4,104.8,89,104.8,89l-194.9,31.2Z"/>
        <path class="st5" d="M193.6,195.7s-.2,59.1,0,62.3c.2,3.2-1,5.3-5.3,6.3-4.3,1-4.5.8-5.3-7.3s-8.5-16.2-23.5-10.5-19.2,23.3-6.7,37.2c12.5,13.8,31.3,11.4,31.3,11.4,0,0,5,12.8,6.2,27.9,1.2,15.1-2.6,28.5-2.6,28.5l-17.3,4.5s-9.2,59,61.4,67.3c70.6,8.3,91-53.1,91-53.1l-42.6-18.4v-25.5s47.5,3.2,57.5-29.3c10.1-32.4-1-104.8-1-104.8l-143.1,3.6Z"/>
        <path class="st10" d="M280.2,364.7s-32.8-6.5-48.4-26.1c-15.6-19.6-18.4-33.4-18.4-33.4,0,0,6.8,6.8,30.3,15.4,23.4,8.6,36.6,5.5,36.6,5.5v38.6Z"/>
        <g>
          <path class="st10" d="M161.3,255.4c-1.7.6-1,3.4.8,2.8,3-1.2,6,.2,8.5,1.9,2.3,1.6,4.6,3.4,5.8,6,2.1,4.8,1.2,11.1-2.7,14.6-1.4,1.2.7,3.3,2,2,4.9-4.4,5.9-12.2,3.2-18.1-1.5-3.2-4.4-5.4-7.2-7.3-3-2-6.8-3.3-10.3-2h0Z"/>
          <path class="st10" d="M177.3,272.9c0,.8.6,1.4,1.4,1.4s1.5-.7,1.4-1.4c-.3-3.4-3-5.8-6.4-6.2-3.3-.3-6.5,1.5-8.6,4-.5.6-.6,1.4,0,2s1.5.6,2,0c1.5-1.8,3.5-3.2,5.9-3.2,2,0,4,1.4,4.1,3.3h0Z"/>
        </g>
        <path class="st10" d="M279.5,227.1c.7-1.7-2.1-2.5-2.8-.8-1.3,3.3-2.5,7-1.5,10.5,1,3.2,3.4,5.8,5.6,8.3,1.3,1.5,2.5,3,3.8,4.4,1.1,1.3,1.8,2.6.9,4.3-.7,1.4-2.2,2.5-3.6,3.3-1.5,1-3.1,1.8-4.8,2.4-1.7.6-1,3.4.8,2.8,3.3-1.3,7-3.1,9.3-5.9,1-1.3,1.7-3,1.6-4.7-.1-1.8-1.2-3.1-2.3-4.4-1.4-1.6-2.7-3.2-4.1-4.8-1.2-1.4-2.5-2.9-3.5-4.5-2.1-3.6-.8-7.4.6-11h0Z"/>
        <path class="st13" d="M279,263.9s16.3.4,24.1,5.7c7.8,5.3,10.2,9.7,8.8,13.1-1.3,3.4-10.5-1.3-11-1.6.3.3,5.3,6,2.5,7.7-2.3,1.4-8.5-2-10.9-3.4-.6-.4-1-.6-1-.6,0,0-1,5.9-5.5,5.1-4.6-.8-6.9-4.1-6.9-4.1,0,0-6.1,6.5-10,4.8-3.9-1.7-2.6-5.9-2.6-5.9,0,0-4.1,2.4-8,3.8-2.6,1-5.1,1.5-6.2.6-2.6-2.3,1.1-6.4,1.1-6.4,0,0-14.8,10.8-15.2,1.2-.4-9.6,12.2-24.9,40.8-20.1Z"/>
        <path class="st10" d="M266.4,284.7s-1.3,4.3,2.6,5.9,10-4.8,10-4.8c0,0,2.4,3.4,6.9,4.1,4.5.8,5.5-5.1,5.5-5.1,0,0,.4.2,1,.6,0,.3,0,.6,0,.9,0,6.1-7.7,11.1-17.2,11.1s-15.3-3.8-16.9-8.9c3.9-1.5,8-3.8,8-3.8Z"/>
        <ellipse class="st2" cx="306" cy="229.3" rx="5.7" ry="8.3"/>
        <ellipse class="st2" cx="247.7" cy="230.2" rx="5.7" ry="8.3"/>
        <path class="st13" d="M310.8,211.2c-3.1-2.1-6.9-1.4-10.5-1.6-3.6-.1-3.2-2.1-2.3-4s4.2-1.5,10.1,0c5.9,1.4,8.7,6.7,8.7,6.7.9,3-2.9,1-6.1-1.1Z"/>
        <path class="st13" d="M241.7,211.2c3.1-2.1,6.9-1.4,10.5-1.6,3.6-.1,3.2-2.1,2.3-4s-4.2-1.5-10.1,0c-5.9,1.4-8.7,6.7-8.7,6.7-.9,3,2.9,1,6.1-1.1Z"/>
        <path class="st9" d="M313.8,125.4c.7,3.3-1.8,6.3-5.1,6.4l-11.7.2c-12.6.2-29,5.2-37.8,8.3-3.2,1.1-6.6-1-7-4.4l-2.4-18.9c-.3-2.5,1.2-4.9,3.6-5.7,5.5-1.8,15.8-4.9,26.9-6.2,11-1.3,20.7-.5,25.7.1,2.3.3,4.1,2,4.6,4.2l3.3,16Z"/>
        <path class="st4" d="M142.4,198.6s106.8-58.1,177.9-69.6c71.2-11.5,94.1,4.3,82.6,31.2-11.5,26.9-66.2,31.8-66.2,31.8-60.7,5.7-194.4,6.5-194.4,6.5Z"/>
      </g>
      <g>
        <path class="st7" d="M47.5,531.1c.8-22.9,4.2-94.5,17.5-115.3,12.6-19.6,73.3-46,98.6-56.4,3.4-1.4,6.2-2.5,8.1-3.3,1.9-.8,3-1.2,3-1.2,0,0,28.1,31.3,73.9,36.8,40,4.8,57-19.6,60.7-25.9.5-.9.8-1.5.8-1.5,0,0,4.5,1.1,11.4,3.1,21.2,6.1,65.6,20,76.6,33.1,14.5,17.4,37.6,131.9,37.6,131.9H47.5c0-.4,0-.9,0-1.4Z"/>
        <path class="st1" d="M310.2,364.4s4.5,1.1,11.4,3.1c21.2,6.1,65.6,20,76.6,33.1,14.5,17.4,37.6,131.9,37.6,131.9h-114.6c.9-3.7,1.5-7.7,1.7-12,2-51-8.7-125.2-13.4-154.6.5-.9.8-1.5.8-1.5Z"/>
        <path class="st1" d="M65.1,415.8c12.6-19.6,73.3-46,98.6-56.4,3.4-1.4,6.2-2.5,8.1-3.3,24,42.5,40.4,126.3,48.4,176.4H48.9c-.5-.5-1-.9-1.4-1.4.8-22.9,4.2-94.5,17.5-115.3Z"/>
        <g>
          <path class="st3" d="M377.9,435.8c-.3-1.8-3-1-2.8.8,1.1,6.9,2.1,13.8,3.2,20.7,3.7,24.5,7.3,48.9,10.8,73.4.1.8,1.1,1.2,1.8,1,.8-.2,1.1-1,1-1.8-1-6.9-2-13.8-3-20.7-3.5-24.5-7.2-48.9-11-73.4h0Z"/>
          <path class="st3" d="M130.9,422.9c-1.6-.8-3.1,1.6-1.4,2.5,6.2,3.2,9.8,9.4,12,15.8,2.3,7,3,14.3,3.5,21.6.5,8.2.6,16.4.6,24.6-.1,14.8-1,29.6-.6,44.4,0,1.8,2.9,1.8,2.9,0-.2-8.8,0-17.6.2-26.5.5-15.9.9-31.9-.6-47.8-1.1-12.5-4.1-28.3-16.4-34.6h0Z"/>
        </g>
        <g>
          <path class="st8" d="M308.4,388.8c1.1-1.5-1.4-2.9-2.5-1.4-6.7,9.2-16.2,16.3-27,20-1.7.6-1,3.4.8,2.8,11.5-4,21.5-11.5,28.7-21.3h0Z"/>
          <path class="st8" d="M272.5,411.2c1.8-.3,1-3.1-.8-2.8-16.8,3-34.1,2.5-50.7-1.5-1.8-.4-2.6,2.3-.8,2.8,17.1,4.1,34.9,4.6,52.3,1.5h0Z"/>
          <path class="st8" d="M311.3,471c1.5-1,0-3.5-1.4-2.5-4.9,3.3-9.8,6.5-14.9,9.6-17.7,11-36.2,20.6-55.3,28.9-1.7.7-.2,3.2,1.4,2.5,5.4-2.4,10.8-4.8,16.1-7.4,18.7-9.1,36.8-19.5,54-31.2h0Z"/>
          <path class="st8" d="M277.5,506.8c1.8,0,1.8-2.9,0-2.9-10.6,0-21.1.6-31.6,1.7-1.8.2-1.8,3.1,0,2.9,10.5-1.1,21.1-1.7,31.6-1.7h0Z"/>
          <path class="st8" d="M313.5,523.8c1.8,0,1.8-2.8,0-2.9-4.8,0-9.7,0-14.5-.1-16.9-.2-33.9-.3-50.8-.5-1.8,0-1.8,2.8,0,2.9,4.8,0,9.7,0,14.5.1,16.9.2,33.9.3,50.8.5h0Z"/>
        </g>
      </g>
    </g>
  </g>
</svg>