<?xml version="1.0" encoding="UTF-8"?>
<svg id="Object" xmlns="http://www.w3.org/2000/svg" xmlns:xlink="http://www.w3.org/1999/xlink" version="1.1" viewBox="0 0 500 500">
  <!-- Generator: Adobe Illustrator 30.1.0, SVG Export Plug-In . SVG Version: 2.1.1 Build 136)  -->
  <defs>
    <style>
      .st0 {
        fill: none;
      }

      .st1 {
        fill: #35356d;
      }

      .st2 {
        fill: #ffe1ca;
      }

      .st3 {
        fill: #ffc9c0;
      }

      .st4 {
        fill: #bc4a55;
      }

      .st5 {
        clip-path: url(#clippath-1);
      }

      .st6 {
        fill: #e87b3f;
      }

      .st7 {
        fill: #fff;
      }

      .st8 {
        fill: #c14f2d;
      }

      .st9 {
        fill: #e27169;
      }

      .st10 {
        fill: #ffaa9f;
      }

      .st11 {
        clip-path: url(#clippath);
      }

      .st12 {
        fill: #ff9a41;
      }
    </style>
    <clipPath id="clippath">
      <circle class="st0" cx="250" cy="250" r="250"/>
    </clipPath>
    <clipPath id="clippath-1">
      <circle class="st0" cx="250" cy="250" r="250"/>
    </clipPath>
  </defs>
  <g class="st11">
    <circle class="st2" cx="250" cy="235.6" r="282.2"/>
  </g>
  <g class="st5">
    <g>
      <g>
        <rect class="st10" x="208.5" y="268.3" width="87" height="99.4"/>
        <ellipse class="st10" cx="156.6" cy="224.3" rx="21.6" ry="26.2" transform="translate(-42.2 36.4) rotate(-11.7)"/>
        <g>
          <path class="st9" d="M148.6,211.9c4.9.9,8,5.1,9.4,9.6,1.7,5.3,2,10.9,1.3,16.4-.2,1.8,2.6,1.8,2.9,0,.8-6.1.3-12.6-1.9-18.3-1.9-4.9-5.6-9.4-11-10.4-1.8-.3-2.6,2.4-.8,2.8h0Z"/>
          <path class="st9" d="M159.7,222.3c-.6,0-1.2-.2-1.9-.3-.7-.2-1.5-.3-2.3-.3-1.7,0-3.1.6-4.3,1.8-2.1,2-3.3,4.9-2.6,7.7.2.8,1,1.2,1.8,1,.8-.2,1.2-1,1-1.8,0-.1,0-.3,0-.4,0,.2,0,0,0-.1,0-.3,0-.5,0-.8,0-.4,0,.2,0-.2,0-.1,0-.2,0-.4,0-.3.2-.5.3-.8,0,.2.1-.2,0-.2,0-.1.1-.2.2-.3.1-.2.3-.5.4-.7.2-.3.6-.7,1-1.1.4-.4.7-.6,1.2-.8.4-.1,1-.1,1.5,0-.2,0,.1,0,.2,0,.1,0,.3,0,.4,0,.3,0,.6.1.9.2.7.1,1.4.3,2.1.3.8,0,1.4-.7,1.4-1.4,0-.8-.7-1.4-1.4-1.4h0Z"/>
        </g>
        <ellipse class="st10" cx="346.3" cy="224.3" rx="26.2" ry="21.6" transform="translate(56.5 518) rotate(-78.3)"/>
        <g>
          <path class="st9" d="M353.5,209.1c-5.4,1-9.1,5.5-11,10.4-2.2,5.7-2.6,12.3-1.9,18.3.2,1.8,3.1,1.8,2.9,0-.7-5.5-.4-11.1,1.3-16.4,1.5-4.5,4.5-8.7,9.4-9.6,1.8-.3,1-3.1-.8-2.8h0Z"/>
          <path class="st9" d="M343.1,225.2c.7,0,1.4-.1,2-.3.3,0,.6-.1.9-.2.1,0,.3,0,.4,0,0,0,.4,0,.3,0,.3,0,.6,0,.9,0,.4,0,.3,0,.6,0,.5.1.8.4,1.2.8.4.4.7.8,1,1.1.1.2.3.4.4.6,0,.1.1.3.2.4,0,0,.2.4,0,.2,0,.2.2.5.2.7,0,.1,0,.3.1.4,0,.2,0,0,0,.1,0,.3,0,.5,0,.8,0,0,0,.5,0,.2,0,.1,0,.3,0,.4-.2.8.2,1.6,1,1.8.7.2,1.6-.2,1.8-1,.7-2.8-.5-5.8-2.6-7.7-1.2-1.1-2.6-1.8-4.2-1.8-.8,0-1.6.2-2.3.3-.7.1-1.3.3-1.9.3-.8,0-1.4.6-1.4,1.4,0,.7.7,1.5,1.4,1.4h0Z"/>
        </g>
        <path class="st3" d="M287.7,310h-71.4c-27.7,0-50.2-22.5-50.2-50.2v-127.5h171.8v127.5c0,27.7-22.5,50.2-50.2,50.2Z"/>
        <path class="st1" d="M341.9,194.5c-.5,2.8-2.8,4.8-5.6,4.8s-5.7-2.5-5.7-5.7v-47.5c0-.9-1-1.4-1.7-.8-5.2,3.8-24.1,14-76.9,14s-71.7-10.2-77-14c-.7-.5-1.7,0-1.7.8v47.3c0,2.8-1.9,5.3-4.7,5.8-3.2.6-6.1-1.6-6.6-4.7-2.5-15.1-8.7-62.5,7.7-92.3,7.8-14.2,22.3-23.3,37-29.1,29-11.5,61.5-11.5,90.5,0,14.7,5.8,29.2,14.9,37,29.1,16.4,29.8,10.2,77.2,7.7,92.3Z"/>
        <g>
          <ellipse class="st1" cx="213.4" cy="203.8" rx="5.8" ry="9.2"/>
          <ellipse class="st1" cx="289.5" cy="203.8" rx="5.8" ry="9.2"/>
        </g>
        <path class="st9" d="M247.6,204.8c.5,1.9,1.1,3.8.9,5.8,0,1.8-.8,3.6-1.6,5.2-1.6,3.3-3.6,6.5-5.9,9.4-2,2.5-4.4,5.7-2.9,9.1.7,1.5,2,2.8,3.2,3.9,1.3,1.3,2.7,2.5,4.2,3.6,1.5,1.1,2.9-1.4,1.4-2.5-1.4-1.1-2.8-2.3-4-3.6-1-1-2.4-2.3-2.4-3.8,0-1.6,1.3-3.1,2.3-4.4,1-1.3,2.1-2.6,3-4,1.9-2.8,3.6-5.8,4.7-8.9,1.3-3.6.8-7-.2-10.6-.5-1.8-3.3-1-2.8.8h0Z"/>
        <g>
          <path class="st4" d="M273.1,260.4c-.4,5.1-2.5,9.8-5.7,13.4-4.2,4.8-10.4,7.8-17.4,7.8s-12.8-2.9-17.1-7.5c-3.4-3.7-5.6-8.5-6.1-13.8,0-1,.7-1.9,1.8-1.9h42.6c.2,0,.4,0,.6.1.7.2,1.3,1,1.2,1.8Z"/>
          <path class="st7" d="M271.9,258.6c-5.1,3.5-12.8,5.8-21.4,5.8s-16.4-2.3-21.5-5.9h42.3c.2,0,.4,0,.6.1Z"/>
          <path class="st9" d="M267.4,273.8c-4.2,4.8-10.4,7.8-17.4,7.8s-12.8-2.9-17.1-7.5c4.8-2.3,10.9-3.6,17.6-3.6s12.1,1.2,16.8,3.3Z"/>
        </g>
        <g>
          <path class="st1" d="M200,178.3c-.6.2-1.1-.5-.8-1,1.2-2.1,4.5-6,12.1-6s16.5,6,14.9,8.4-5.7-3.5-14.3-3.1c-5.9.2-9.9,1.1-11.9,1.7Z"/>
          <path class="st1" d="M277.6,178.3c-.6.2-1.1-.5-.8-1,1.2-2.1,4.5-6,12.1-6s16.5,6,14.9,8.4-5.7-3.5-14.3-3.1c-5.9.2-9.9,1.1-11.9,1.7Z"/>
        </g>
        <g>
          <path class="st7" d="M210.6,240.2c-18,0-32.6-14.6-32.6-32.6s14.6-32.6,32.6-32.6,32.6,14.6,32.6,32.6c0,18-14.6,32.6-32.6,32.6ZM210.6,177.8c-16.4,0-29.8,13.4-29.8,29.8s13.4,29.8,29.8,29.8,29.8-13.4,29.8-29.8-13.4-29.8-29.8-29.8Z"/>
          <path class="st7" d="M290.5,240.2c-18,0-32.6-14.6-32.6-32.6s14.6-32.6,32.6-32.6,32.6,14.6,32.6,32.6c0,18-14.6,32.6-32.6,32.6ZM290.5,177.8c-16.4,0-29.8,13.4-29.8,29.8s13.4,29.8,29.8,29.8,29.8-13.4,29.8-29.8c0-16.4-13.4-29.8-29.8-29.8Z"/>
          <path class="st7" d="M163.6,201.8c-.6,0-1.2-.4-1.4-1.1-.2-.8.3-1.5,1-1.7l18.2-4.7c.8-.2,1.5.3,1.7,1,.2.8-.3,1.5-1,1.7l-18.2,4.7c-.1,0-.2,0-.4,0Z"/>
          <path class="st7" d="M337.9,201.8c-.1,0-.2,0-.4,0l-18.2-4.7c-.8-.2-1.2-1-1-1.7s1-1.2,1.7-1l18.2,4.7c.8.2,1.2,1,1,1.7-.2.6-.7,1.1-1.4,1.1Z"/>
          <path class="st7" d="M260,202.1c-.2,0-.4,0-.6-.1-10.1-4.8-17.2-.3-17.5,0-.7.4-1.5.2-2-.4-.4-.7-.3-1.5.4-2,.4-.2,8.8-5.6,20.3,0,.7.3,1,1.2.7,1.9-.2.5-.8.8-1.3.8Z"/>
        </g>
      </g>
      <g>
        <path class="st12" d="M451.2,507.4H48.8l14.8-85.6c2.1-12,10-22.3,21.1-27.3l103.7-46.8s-.2-13,1.1-21.6c1.4-8.6,8.2-15.9,21.6-14.1,13.4,1.8,38.8,2.9,38.8,2.9,0,0,25.4-1.1,38.8-2.9,13.4-1.8,20.2,5.4,21.6,14.1,1.4,8.6,1.1,21.6,1.1,21.6l103.7,46.8c11.1,5,19.1,15.2,21.1,27.3l14.8,85.6Z"/>
        <path class="st8" d="M187,348c11,14.3,28.4,20.8,45.7,22.9,9.7,1.2,19.6,1.2,29.3.2,9.3-.9,18.8-2.5,27.4-6.5,8.6-4,16-10.3,22.3-17.4,1.2-1.4-.8-3.4-2-2-5.3,6.1-11.5,11.4-18.6,15.4-7.9,4.3-16.7,6.2-25.6,7.3-9.4,1.2-18.9,1.4-28.4.6-9-.7-18-2.5-26.3-6-8.2-3.5-15.9-8.8-21.4-15.9-.5-.6-1.2-.9-2-.5-.6.3-1,1.3-.5,2h0Z"/>
        <g>
          <path class="st8" d="M179.3,363.3c3.2,7.6,9,13.2,15.7,17.8,7.5,5.1,15.7,9.1,24,12.5,5,2,10.2,3.8,15.4,5.2,1.8.5,2.5-2.3.8-2.8-8.8-2.4-17.4-5.7-25.6-9.8-7-3.5-14.2-7.5-20-13-3.1-3-5.8-6.5-7.5-10.6-.7-1.7-3.5-.9-2.8.8h0Z"/>
          <path class="st8" d="M244.4,399.5c16,2.6,32.4,2.3,48.2-1.2,4.5-1,8.9-2.2,13.2-3.6,1.7-.6,1-3.3-.8-2.8-14.9,5-30.7,7.1-46.5,6.3-4.5-.2-9-.7-13.5-1.5-1.8-.3-2.6,2.5-.8,2.8h0Z"/>
        </g>
        <g>
          <path class="st8" d="M208.9,311.9c-5.2,5.5-7.5,12.9-8.5,20.3-1.1,8.3-1.5,16.7-1.9,25,0,1.8,2.8,1.8,2.9,0,.4-7.9.7-15.9,1.7-23.7.9-7,2.9-14.3,7.9-19.6,1.3-1.3-.8-3.4-2-2h0Z"/>
          <path class="st8" d="M226.3,314.6c-.5,8.9-1.1,17.7-1.7,26.6-.3,4.4-.6,8.9-1,13.3-.2,2.2-.3,4.4-.5,6.6-.2,2-.2,4.1-.8,6-.5,1.8,2.3,2.5,2.8.8.6-2,.7-4,.8-6.1.2-2.3.4-4.6.5-6.9.3-4.4.7-8.9,1-13.3.6-9,1.2-18.1,1.7-27.1.1-1.8-2.8-1.8-2.9,0h0Z"/>
          <path class="st8" d="M247.6,316.3c1.5,9,2.8,17.9,3.5,27,.7,9,1,18,1.2,27.1,0,1.5,2.6,2,2.8.4,0-.2,0-.3,0-.5.3-1.8-2.5-2.6-2.8-.8,0,.2,0,.3,0,.5.9.1,1.9.3,2.8.4-.2-9.2-.5-18.4-1.2-27.5-.7-9.2-2.1-18.2-3.6-27.3-.3-1.8-3.1-1-2.8.8h0Z"/>
          <path class="st8" d="M267.1,315c4.6,17.2,6.3,35.1,5.1,52.8-.1,1.8,2.7,1.8,2.9,0,1.2-18-.5-36.2-5.2-53.6-.5-1.8-3.2-1-2.8.8h0Z"/>
          <path class="st8" d="M286.7,313.1c6.8,14.2,8,29.9,9,45.4.1,1.8,3,1.8,2.9,0-1-16.1-2.3-32.2-9.4-46.9-.8-1.7-3.3-.2-2.5,1.4h0Z"/>
        </g>
        <path class="st6" d="M179.4,380.2s46.5,49.7,49.6,49.7,97.9-17.3,97.9-17.3c0,0-96.9-2.9-147.5-32.4Z"/>
        <path class="st6" d="M391.4,507.4H99.6l5.5-48.2s37.7,22.1,143.2,24.4c105.5,2.3,139.6-15.6,139.6-15.6l3.4,39.3Z"/>
        <g>
          <path class="st8" d="M103.7,438.6c-.4,7.6-1.3,15.3-2,22.9-1,10.7-2,21.4-3.2,32.1-.2,2.1-.5,4.2-.7,6.3-.2,1.4-.2,1.9-.5,3.4-.3,1.8,2.4,2.6,2.8.8.5-2.8.8-5.7,1.1-8.5.5-4.9,1-9.8,1.5-14.7,1.1-10.7,2.1-21.5,3-32.2.3-3.3.6-6.6.8-10,0-1.8-2.8-1.8-2.9,0h0Z"/>
          <path class="st8" d="M384,438.6c.4,7.7,1.3,15.5,2,23.2,1,10.7,2,21.4,3.2,32.1.4,3.4.7,6.8,1.3,10.1.3,1.8,3.1,1,2.8-.8,0-.4-.1-.8-.2-1.2,0-.1,0-.3,0-.4,0-.4,0,0,0-.2,0-.3,0-.7-.1-1-.2-1.7-.4-3.5-.6-5.2-.5-4.9-1-9.8-1.5-14.7-1.1-10.7-2.1-21.3-3-32-.3-3.3-.6-6.6-.8-9.9,0-1.8-3-1.8-2.9,0h0Z"/>
        </g>
      </g>
    </g>
  </g>
</svg>