<?xml version="1.0" encoding="UTF-8"?>
<svg id="Object" xmlns="http://www.w3.org/2000/svg" xmlns:xlink="http://www.w3.org/1999/xlink" version="1.1" viewBox="0 0 500 500">
  <!-- Generator: Adobe Illustrator 30.1.0, SVG Export Plug-In . SVG Version: 2.1.1 Build 136)  -->
  <defs>
    <style>
      .st0 {
        fill: none;
      }

      .st1 {
        fill: #35356d;
      }

      .st2 {
        fill: #336ae5;
      }

      .st3 {
        fill: #3888fc;
      }

      .st4 {
        fill: #ccdcff;
      }

      .st5 {
        fill: #2962d3;
      }

      .st6 {
        fill: #ffc9c0;
      }

      .st7 {
        fill: #bc4a55;
      }

      .st8 {
        clip-path: url(#clippath-1);
      }

      .st9 {
        fill: #fff;
      }

      .st10 {
        fill: #e27169;
      }

      .st11 {
        fill: #ffaa9f;
      }

      .st12 {
        clip-path: url(#clippath);
      }
    </style>
    <clipPath id="clippath">
      <circle class="st0" cx="250" cy="250" r="250"/>
    </clipPath>
    <clipPath id="clippath-1">
      <circle class="st0" cx="250" cy="250" r="250"/>
    </clipPath>
  </defs>
  <g class="st12">
    <circle class="st4" cx="250" cy="252.7" r="265.1"/>
  </g>
  <g class="st8">
    <g>
      <path class="st1" d="M329,229.8l6.9-17.8s50.8-106-23.6-139.3c-74.4-33.3-111.8,27.1-111.8,27.1,0,0-34.5-.6-47.2,38.2-12.7,38.8,17.1,87.9,17.1,87.9,0,0-25.2,39.4-24.5,78.5.5,25.5,16,33.9,26.8,36.6,2.5,3.4,5.6,6.7,9.3,9.8,28.6,24.5,147.3,17.1,166.7-31.9,19.4-49-19.9-89.1-19.9-89.1ZM156,320.6c-1.6-17.6,6-29.3,6-29.3,0,0-6,24.8,9.1,47.3-6.8-3.2-14.2-8.7-15.1-17.9Z"/>
      <g>
        <path class="st11" d="M343.3,358.5v50.1l-94.5,29.6-94.6-29.6v-50.1s48.7-16.4,55.2-28.4c1.7-3.2,3-7.8,3.9-12.9,2.5-13.7,2.4-30.3,2.4-30.3l33.1,8.5,33.1-8.5s-.1,19.6,3,33.7c.8,3.7,1.9,7,3.2,9.5,6.5,12,55.2,28.4,55.2,28.4Z"/>
        <path class="st10" d="M284.9,320.6c-9.7,5.8-21.1,9.1-33.2,9.1s-27.6-4.7-38.4-12.6c2.5-13.7,2.4-30.3,2.4-30.3l33.1,8.5,33.1-8.5s-.1,19.6,3,33.7Z"/>
      </g>
      <g>
        <g>
          <ellipse class="st11" cx="342.1" cy="226.1" rx="26.7" ry="21.9" transform="translate(51.3 515.3) rotate(-78.3)"/>
          <g>
            <path class="st10" d="M349.5,210.7c-5.6,1-9.3,5.7-11.3,10.7-2.2,5.8-2.6,12.3-1.8,18.4.2,1.8,3.1,1.8,2.9,0-.7-5.5-.4-11.2,1.3-16.5,1.5-4.6,4.6-9,9.7-9.9,1.8-.3,1-3.1-.8-2.8h0Z"/>
            <path class="st10" d="M338.9,227c.7,0,1.4-.1,2.1-.3.3,0,.6-.1.9-.2.1,0,.3,0,.4,0,0,0,.4,0,.3,0,.3,0,.6,0,.9,0,.4,0,.3,0,.7,0,.5.1.9.4,1.2.8.4.4.8.8,1,1.1.1.2.3.4.4.7,0,.1.1.3.2.4,0,0,.2.4.1.2,0,.2.2.5.2.7,0,.1,0,.3.1.4,0,0,0,0,0,.1,0-.1,0-.1,0,0,0,.3,0,.5,0,.8,0,0,0,.5,0,.2,0,.2,0,.3,0,.4-.2.8.2,1.6,1,1.8.7.2,1.6-.2,1.8-1,.7-2.9-.5-5.8-2.6-7.8-1.2-1.1-2.6-1.9-4.3-1.8-.8,0-1.6.2-2.4.3-.7.1-1.4.3-2,.3-.8,0-1.4.6-1.4,1.4,0,.8.7,1.5,1.4,1.4h0Z"/>
          </g>
        </g>
        <g>
          <ellipse class="st11" cx="160.3" cy="226.1" rx="21.9" ry="26.7" transform="translate(-42.5 37.1) rotate(-11.7)"/>
          <g>
            <path class="st10" d="M152.1,213.5c5.1.9,8.2,5.3,9.7,9.9,1.7,5.3,2,11,1.3,16.5-.2,1.8,2.6,1.8,2.9,0,.8-6.1.4-12.6-1.8-18.4-1.9-5.1-5.7-9.7-11.3-10.7-1.8-.3-2.6,2.4-.8,2.8h0Z"/>
            <path class="st10" d="M163.4,224.1c-.6,0-1.3-.2-2-.3-.8-.2-1.5-.3-2.3-.3-1.7,0-3.1.6-4.4,1.8-2.1,2-3.3,5-2.6,7.8.2.8,1,1.2,1.8,1,.8-.2,1.2-1,1-1.8-.2-.9-.1-1.8.3-2.8,0,.2.1-.2.1-.2,0-.1.1-.2.2-.3.1-.2.3-.5.4-.7.2-.2.2-.2.4-.5.2-.2.4-.4.6-.6.4-.4.8-.6,1.2-.8.4-.1,1-.1,1.6,0-.2,0,.2,0,.2,0,.1,0,.3,0,.4,0,.3,0,.6.1.9.2.7.1,1.4.3,2.1.3.8,0,1.4-.7,1.4-1.4,0-.8-.7-1.4-1.4-1.4h0Z"/>
          </g>
        </g>
      </g>
      <g>
        <path class="st6" d="M332.2,191.2v40.5c0,44.4-36,80.4-80.4,80.4h-.9c-44.4,0-80.4-36-80.4-80.4v-42.5c0-1.6,1.2-3,2.8-3.3,7.8-1.4,20.1-4.5,34.6-11.7,16.6-8.2,25.2-15.7,29-19.8,1.4-1.5,3.9-1.4,5.1.2,8,10.6,35.9,41,86.2,33.3,2.1-.3,3.9,1.3,3.9,3.3Z"/>
        <g>
          <ellipse class="st1" cx="212.2" cy="211.2" rx="5.9" ry="9.4"/>
          <ellipse class="st1" cx="289.6" cy="211.2" rx="5.9" ry="9.4"/>
        </g>
        <path class="st10" d="M251.8,211.8c.5,1.9,1.1,3.9,1,5.9-.1,1.9-.8,3.7-1.6,5.3-1.7,3.5-3.7,6.7-6.1,9.7-2,2.5-4.3,5.6-2.9,8.9.6,1.6,1.9,2.8,3.1,4,1.4,1.4,2.8,2.6,4.4,3.8,1.5,1.1,2.9-1.4,1.4-2.5-1.5-1.1-2.8-2.4-4.1-3.7-1-1.1-2.5-2.4-2.4-4,.1-1.5,1.2-2.9,2.1-4,1.1-1.4,2.2-2.7,3.2-4.2,1.9-2.9,3.7-6,4.9-9.2,1.3-3.6.8-7.1-.2-10.7-.5-1.8-3.2-1-2.8.8h0Z"/>
        <g>
          <path class="st7" d="M274.6,263c-.4,5.2-2.6,10-5.8,13.7-4.3,4.9-10.6,8-17.6,8s-13-2.9-17.3-7.6c-3.5-3.7-5.7-8.6-6.2-14,0-1,.8-1.9,1.8-1.9h43.3c.2,0,.4,0,.6.1.8.3,1.3,1,1.2,1.8Z"/>
          <path class="st9" d="M273.4,261.1c-5.2,3.6-13,5.9-21.7,5.9s-16.7-2.3-21.9-6h43c.2,0,.4,0,.6.1Z"/>
          <path class="st10" d="M268.8,276.6c-4.3,4.9-10.6,8-17.6,8s-13-2.9-17.3-7.6c4.9-2.3,11.1-3.7,17.9-3.7,6.4,0,12.3,1.2,17.1,3.3Z"/>
        </g>
        <g>
          <path class="st1" d="M198.7,190.8c-.6.2-1.1-.5-.8-1,1.2-2.2,4.6-6.1,12.3-6.1s16.7,6.1,15.1,8.5c-1.6,2.4-5.8-3.5-14.5-3.2-5.9.2-10.1,1.2-12.1,1.7Z"/>
          <path class="st1" d="M277.6,190.8c-.6.2-1.1-.5-.8-1,1.2-2.2,4.6-6.1,12.3-6.1s16.7,6.1,15.1,8.5c-1.6,2.4-5.8-3.5-14.5-3.2-5.9.2-10.1,1.2-12.1,1.7Z"/>
        </g>
        <g>
          <ellipse class="st11" cx="204.7" cy="239.4" rx="18" ry="13.3"/>
          <ellipse class="st11" cx="298.5" cy="239.4" rx="18" ry="13.3"/>
        </g>
      </g>
      <path class="st3" d="M417.5,500H82.5s17.5-105.2,29.5-121c12-15.8,83.9-38.2,83.9-38.2,0,0,4.9,35.5,23.7,59.8,10.3,13.3,18.6,21.7,24.1,26.6,3.7,3.3,9.1,3.3,12.7,0,5.4-4.9,13.8-13.4,24.1-26.6,18.8-24.3,20.9-60.4,20.9-60.4,0,0,74.7,23,86.7,38.8,12,15.8,29.5,121,29.5,121Z"/>
      <path class="st2" d="M371.3,500H123.8c-.8-9.5-.9-24.3,3.5-38.1,0,0,36.9,20.2,121.5,19,84.5-1.2,120.3-12.3,120.3-12.3,0,0,2.1,13.9,2.3,31.4Z"/>
      <g>
        <path class="st5" d="M138.8,403.9c.6,6.8,3,13.4,2.6,20.2-.3,6.1-3.2,11.8-6.1,17.1-3,5.5-6,11-8.2,16.9-2.3,6.1-4,12.4-5,18.8-1.1,7.1-1.5,14.3-1,21.5.1,1.8,3,1.8,2.9,0-.9-12.9.9-25.9,5.3-38,2.1-6,5-11.5,8.1-17.1,3-5.4,5.9-11,6.7-17.2,1-7.6-1.8-14.8-2.4-22.3-.2-1.8-3-1.8-2.9,0h0Z"/>
        <path class="st5" d="M352.7,403.9c-.6,6.8-3,13.4-2.6,20.2.3,6.1,2.9,11.8,5.7,17.1,3,5.5,6.1,11,8.4,16.8,2.4,6.1,4.1,12.4,5.2,18.8,1.2,7.1,1.5,14.4,1,21.6-.1,1.8,2.7,1.8,2.9,0,.9-12.8-.9-25.8-5.1-38-2.1-6-4.8-11.6-7.9-17.1-3-5.4-6.2-11-7.1-17.2-1.1-7.5,1.8-14.9,2.4-22.3.2-1.8-2.7-1.8-2.9,0h0Z"/>
        <path class="st5" d="M187.6,371.1c1.9,12.9,6.3,25.3,13.1,36.4,1,1.6,3.4.1,2.5-1.4-6.6-10.9-11-23-12.8-35.7-.3-1.8-3-1-2.8.8h0Z"/>
        <path class="st5" d="M205.7,413.1c7.2,13.9,20.6,23.9,36,26.9,4.6.9,9.3,1.1,14,.8,1.8-.2,1.8-3,0-2.9-15.3,1.3-30.5-4.7-40.7-16.2-2.7-3-5-6.4-6.8-10-.9-1.6-3.3-.2-2.5,1.4h0Z"/>
      </g>
      <g>
        <path class="st10" d="M206,348.4c6.5,0,13.1,0,19.6,0,1.6,0,3.1,0,4.7,0,1.5,0,3.1-.2,4.6,0,2.5.5,3.6,3.1,4.4,5.3.7,1.7,3.4,1,2.8-.8-1-2.4-2.1-5-4.4-6.5-1.3-.8-2.9-1-4.4-1-1.8,0-3.6,0-5.4,0-7.3,0-14.6,0-22,0-1.8,0-1.8,2.9,0,2.9h0Z"/>
        <path class="st10" d="M292,345.6c-7.3,0-14.6,0-22,0-1.8,0-3.6,0-5.4,0-1.5,0-3,.2-4.3.9-2.4,1.4-3.6,4.1-4.6,6.5-.7,1.7,2.1,2.5,2.8.8.8-2.1,1.9-4.8,4.4-5.3,1.4-.3,3-.1,4.4-.1,1.7,0,3.3,0,5,0,6.5,0,13.1,0,19.6,0,1.8,0,1.8-2.9,0-2.9h0Z"/>
      </g>
    </g>
  </g>
</svg>