<?xml version="1.0" encoding="UTF-8"?>
<svg id="Object" xmlns="http://www.w3.org/2000/svg" xmlns:xlink="http://www.w3.org/1999/xlink" version="1.1" viewBox="0 0 500 500">
  <!-- Generator: Adobe Illustrator 30.1.0, SVG Export Plug-In . SVG Version: 2.1.1 Build 136)  -->
  <defs>
    <style>
      .st0 {
        fill: none;
      }

      .st1 {
        fill: #35356d;
      }

      .st2 {
        fill: #ffc9c0;
      }

      .st3 {
        fill: #bc4a55;
      }

      .st4 {
        clip-path: url(#clippath-1);
      }

      .st5 {
        fill: #fff;
      }

      .st6 {
        fill: #f2dde7;
      }

      .st7 {
        fill: #bc5c83;
      }

      .st8 {
        fill: #e27169;
      }

      .st9 {
        fill: #ffaa9f;
      }

      .st10 {
        clip-path: url(#clippath);
      }

      .st11 {
        fill: #bf9fa7;
      }
    </style>
    <clipPath id="clippath">
      <circle class="st0" cx="250" cy="250" r="250"/>
    </clipPath>
    <clipPath id="clippath-1">
      <circle class="st0" cx="250" cy="250" r="250"/>
    </clipPath>
  </defs>
  <g class="st10">
    <circle class="st6" cx="250" cy="246.3" r="271.5"/>
  </g>
  <g class="st4">
    <g>
      <path class="st7" d="M239.4,109.3s63.7-21.1,100.3,33.5c36.6,54.6,32,153.8,29,177.1-3,23.3-5,26.5-5,26.5h-29l-1.4-22.9-5.3,21.1h-154.4l-6.7-38-10.3,38h-23.2s6.7-148.8,31.3-194.8c24.6-45.9,59.8-45.3,74.8-40.5Z"/>
      <g>
        <g>
          <path class="st2" d="M429.2,500H70.8s6.7-68.1,32-89.1c6.1-5,14.5-9.5,24.1-13.5,14.8-6.2,32.1-11.4,46.7-16,11.5-3.6,21.3-6.9,26.8-10.1,1.8-1.1,3.2-2.1,4-3.1,8.3-10.9,7-55.8,7-55.8l38.7,4.9,38.7-4.9s-1.3,44.9,7,55.8c.7.9,1.9,1.9,3.4,2.8,5.4,3.3,15.5,6.7,27.4,10.5,14.6,4.6,31.9,9.8,46.7,16,9.5,4,18,8.4,24,13.5,25.3,21,32,89,32,89Z"/>
          <path class="st9" d="M299.1,371c-12.3,16.5-30,26.8-49.5,26.8s-36.9-10.2-49.3-26.5c1.8-1.1,3.2-2.1,4-3.1,4-5.2,5.8-18.2,6.5-30.3.8-13.2.5-25.4.5-25.4l38.7,4.9,38.7-4.9s-.3,11.3.4,23.9c.7,12.6,2.5,26.5,6.6,31.9.7.9,1.9,1.9,3.4,2.8Z"/>
          <path class="st8" d="M289.1,336.3c-12,5.5-26,8.6-40.9,8.6s-26.2-2.6-37.3-7.1c.8-13.2.5-25.4.5-25.4l38.7,4.9,38.7-4.9s-.3,11.3.4,23.9Z"/>
        </g>
        <path class="st1" d="M286.4,359.7h-73.6c-3.2,0-5.7-2.6-5.7-5.7v-9.3c0-3.2,2.6-5.7,5.7-5.7h73.6c3.2,0,5.7,2.6,5.7,5.7v9.3c0,3.2-2.6,5.7-5.7,5.7Z"/>
        <path class="st11" d="M383,500H117c1.6-3.6,3.5-7.4,5.9-10.9,9-13.3,12.5-18.2,11.7-34.5-.5-10.5-4.8-38.5-7.8-57.1,14.8-6.2,32.1-11.4,46.7-16,1.8,17.2,8.2,48.9,31.3,56,32,9.8,45.2,7.1,45.2,7.1,0,0,13.2,2.7,45.2-7.1,23-7,29.5-38.8,31.3-56,14.6,4.6,31.9,9.8,46.7,16-3,18.6-7.3,46.6-7.8,57.1-.8,16.3,2.7,21.2,11.7,34.5,2.4,3.6,4.4,7.3,5.9,10.9Z"/>
        <g>
          <path class="st8" d="M121.6,446.1c5.2,6.1,9.3,13,12.3,20.4.3.7,1,1.2,1.8,1,.7-.2,1.3-1,1-1.8-3.2-7.9-7.5-15.2-13-21.6-1.2-1.4-3.2.6-2,2h0Z"/>
          <path class="st8" d="M377.5,453.1c-3.8,6.6-7.1,13.5-10,20.5-.3.7.3,1.6,1,1.8.8.2,1.5-.3,1.8-1,2.8-6.8,6.1-13.4,9.7-19.8.9-1.6-1.6-3.1-2.5-1.4h0Z"/>
          <path class="st8" d="M190.5,389.4c8.2-.2,16.4-.4,24.5-.6,2,0,4.1-.1,6.1-.2,1.9,0,4-.3,5.9-.1,2.8.2,3.8,3.8,5.7,5.4,1.4,1.2,3.5-.9,2-2-2.3-1.9-3.1-5.2-6.2-6-1.7-.5-3.7-.2-5.5-.1-2.2,0-4.4.1-6.6.2-8.7.2-17.3.4-26,.7-1.8,0-1.8,2.9,0,2.9h0Z"/>
          <path class="st8" d="M265.7,391.8c0-5.3,7.2-4.8,10.7-5,5.3-.2,10.7-.4,16-.6,1.8,0,1.8-2.9,0-2.9-6.3.2-12.6.5-18.8.7-2.5.1-5.3.3-7.5,1.7-2,1.4-3.3,3.5-3.3,6,0,1.8,2.9,1.8,2.9,0h0Z"/>
        </g>
      </g>
      <g>
        <g>
          <ellipse class="st9" cx="159.8" cy="257.6" rx="22.9" ry="27.8" transform="translate(-48.9 37.7) rotate(-11.7)"/>
          <g>
            <path class="st8" d="M151.3,244.4c5.3,1,8.5,5.5,10.1,10.3,1.8,5.5,2.1,11.5,1.4,17.3-.2,1.8,2.6,1.8,2.9,0,.8-6.3.4-13.2-1.9-19.2-2-5.2-5.9-10.1-11.7-11.1-1.8-.3-2.6,2.4-.8,2.8h0Z"/>
            <path class="st8" d="M163.1,255.6c-1.4,0-2.9-.6-4.4-.7-1.8,0-3.2.7-4.5,1.9-2.2,2.1-3.4,5.1-2.7,8.1.2.8,1,1.2,1.8,1,.8-.2,1.2-1,1-1.8-.4-1.9.5-4,2.1-5.4.9-.8,1.7-1,2.9-.9,1.1.2,2.6.6,3.8.6.8,0,1.4-.7,1.4-1.4s-.7-1.4-1.4-1.4h0Z"/>
          </g>
        </g>
        <g>
          <ellipse class="st9" cx="339.4" cy="257.6" rx="27.8" ry="22.9" transform="translate(18.4 537.8) rotate(-78.3)"/>
          <g>
            <path class="st8" d="M347.1,241.6c-5.8,1.1-9.7,5.9-11.7,11.1-2.3,6-2.7,12.9-1.9,19.2.2,1.8,3.1,1.8,2.9,0-.7-5.7-.4-11.7,1.4-17.3,1.6-4.8,4.8-9.4,10.1-10.3,1.8-.3,1-3.1-.8-2.8h0Z"/>
            <path class="st8" d="M336.1,258.4c1.3,0,2.7-.5,3.8-.6,1.2-.2,2,0,2.9.9.4.4.8.8,1,1.2.2.2.3.4.4.7,0,.1.2.3.2.4,0,0,.2.4.1.2,0,.2.2.5.2.8,0,.2,0,.3.1.5,0,0,0,.1,0,.2,0,0,0,0,0,0,0,.3,0,.6,0,.9,0,0,0,.5,0,.2,0,.2,0,.3,0,.5-.2.8.2,1.6,1,1.8.7.2,1.6-.2,1.8-1,.7-3-.6-6.1-2.7-8.1-1.2-1.2-2.7-1.9-4.4-1.9-1.5,0-3.1.6-4.5.7-.8,0-1.4.6-1.4,1.4s.7,1.5,1.4,1.4h0Z"/>
          </g>
        </g>
      </g>
      <g>
        <path class="st2" d="M333.2,217.9v28.4c0,46-37.3,83.2-83.2,83.2s-83.2-37.3-83.2-83.2v-28.4c9.1-.2,22.5-2.9,32-15.2,16-20.5,14.5-47.4,63.2-46.7,0,0-15.3,61.1,71.2,61.9Z"/>
        <g>
          <ellipse class="st1" cx="210.4" cy="236.1" rx="5.7" ry="9"/>
          <ellipse class="st1" cx="284.7" cy="236.1" rx="5.7" ry="9"/>
        </g>
        <path class="st8" d="M246.1,236.7c.5,1.8,1,3.7.9,5.6-.1,1.8-.8,3.5-1.5,5.1-1.6,3.3-3.6,6.5-5.9,9.3-1.9,2.4-4.1,5.4-2.8,8.6.7,1.5,2,2.8,3.1,4,1.3,1.3,2.7,2.4,4.1,3.5,1.5,1.1,2.9-1.4,1.4-2.5-1.3-1-2.6-2.2-3.8-3.4-1.1-1.1-2.6-2.4-2.4-4.1.2-1.5,1.2-2.8,2.1-3.9,1-1.3,2.1-2.6,3-4,1.9-2.8,3.6-5.8,4.7-8.9,1.2-3.4.7-6.7-.3-10.1-.5-1.8-3.3-1-2.8.8h0Z"/>
        <g>
          <path class="st3" d="M268.1,285.8c-.4,5-2.5,9.6-5.6,13.1-4.1,4.7-10.2,7.6-16.9,7.6s-12.5-2.8-16.6-7.3c-3.3-3.6-5.5-8.3-5.9-13.5,0-1,.7-1.9,1.7-1.9h41.6c.2,0,.4,0,.6.1.7.2,1.2,1,1.2,1.8Z"/>
          <path class="st5" d="M266.9,284c-5,3.4-12.5,5.6-20.9,5.6s-16-2.2-21-5.7h41.3c.2,0,.4,0,.6.1Z"/>
          <path class="st8" d="M262.5,298.9c-4.1,4.7-10.2,7.6-16.9,7.6s-12.5-2.8-16.6-7.3c4.7-2.2,10.7-3.5,17.2-3.5,6.2,0,11.9,1.2,16.4,3.2Z"/>
        </g>
        <g>
          <path class="st1" d="M195.1,207.7c-.6.2-1-.4-.7-1,1.2-2.1,4.4-5.8,11.8-5.8s16.1,5.9,14.5,8.2-5.6-3.4-14-3.1c-5.7.2-9.7,1.1-11.6,1.6Z"/>
          <path class="st1" d="M270.9,207.7c-.6.2-1-.4-.7-1,1.2-2.1,4.4-5.8,11.8-5.8s16.1,5.9,14.5,8.2-5.6-3.4-14-3.1c-5.7.2-9.7,1.1-11.6,1.6Z"/>
        </g>
        <g>
          <ellipse class="st9" cx="201" cy="263.1" rx="17.3" ry="12.8"/>
          <ellipse class="st9" cx="291" cy="263.1" rx="17.3" ry="12.8"/>
        </g>
        <g>
          <path class="st5" d="M210,267.5c-17.3,0-31.4-14.1-31.4-31.4s14.1-31.4,31.4-31.4,31.4,14.1,31.4,31.4c0,17.3-14.1,31.4-31.4,31.4ZM210,207.5c-15.7,0-28.5,12.8-28.5,28.5s12.8,28.5,28.5,28.5,28.5-12.8,28.5-28.5-12.8-28.5-28.5-28.5Z"/>
          <path class="st5" d="M286.7,267.5c-17.3,0-31.4-14.1-31.4-31.4s14.1-31.4,31.4-31.4,31.4,14.1,31.4,31.4c0,17.3-14.1,31.4-31.4,31.4ZM286.7,207.5c-15.7,0-28.5,12.8-28.5,28.5s12.8,28.5,28.5,28.5,28.5-12.8,28.5-28.5-12.8-28.5-28.5-28.5Z"/>
          <path class="st5" d="M164.8,230.6c-.6,0-1.2-.4-1.4-1.1-.2-.8.3-1.5,1-1.7l17.5-4.5c.8-.2,1.5.3,1.7,1s-.3,1.5-1,1.7l-17.5,4.5c-.1,0-.2,0-.4,0Z"/>
          <path class="st5" d="M332.2,230.6c-.1,0-.2,0-.4,0l-17.5-4.5c-.8-.2-1.2-1-1-1.7s1-1.2,1.7-1l17.5,4.5c.8.2,1.2,1,1,1.7-.2.6-.7,1.1-1.4,1.1Z"/>
          <path class="st5" d="M257.4,230.9c-.2,0-.4,0-.6-.1-9.7-4.6-16.7-.1-16.8,0-.7.4-1.5.3-2-.4-.4-.7-.3-1.5.4-2,.3-.2,8.4-5.4,19.6,0,.7.3,1,1.2.7,1.9-.2.5-.8.8-1.3.8Z"/>
        </g>
      </g>
    </g>
  </g>
</svg>