<?xml version="1.0" encoding="UTF-8"?>
<svg id="Object" xmlns="http://www.w3.org/2000/svg" xmlns:xlink="http://www.w3.org/1999/xlink" version="1.1" viewBox="0 0 500 500">
  <!-- Generator: Adobe Illustrator 30.1.0, SVG Export Plug-In . SVG Version: 2.1.1 Build 136)  -->
  <defs>
    <style>
      .st0 {
        fill: none;
      }

      .st1 {
        fill: #35356d;
      }

      .st2 {
        fill: #ff4f4d;
      }

      .st3 {
        fill: #ffe1ca;
      }

      .st4 {
        fill: #ffc9c0;
      }

      .st5 {
        fill: #bc4a55;
      }

      .st6 {
        clip-path: url(#clippath-1);
      }

      .st7 {
        fill: #fff;
      }

      .st8 {
        fill: #e27169;
      }

      .st9 {
        fill: #ffaa9f;
      }

      .st10 {
        clip-path: url(#clippath);
      }

      .st11 {
        fill: #ff9a41;
      }
    </style>
    <clipPath id="clippath">
      <circle class="st0" cx="250" cy="250" r="250"/>
    </clipPath>
    <clipPath id="clippath-1">
      <circle class="st0" cx="250" cy="250" r="250"/>
    </clipPath>
  </defs>
  <g class="st10">
    <circle class="st3" cx="250" cy="253.2" r="264.7"/>
  </g>
  <g class="st6">
    <g>
      <path class="st11" d="M336.8,240s10.1-4.6,18.7-19c8.7-14.4,11.1-30.1,11.1-30.1l-3,35s23.3-34.4,8.1-80.3c-15.2-46-73.1-42.7-73.1-42.7,0,0-17.6-41.4-108.2,7.4-90.7,48.9-59.7,130.8-41.8,166.1,17.9,35.3-62.4,81.4,6,133,68.4,51.6,218.8,27.7,224.7-36.4,6-64.1-42.6-133-42.6-133Z"/>
      <path class="st4" d="M163.3,441.9c1.3,23.3-7.5,47.3-15,63h-66.1s13-96.6,35.1-113.3c6.5-4.9,16.7-9.8,28.1-14.4,6.8,14.6,16.5,39.4,17.9,64.7Z"/>
      <path class="st4" d="M331.6,300.8c-9,32.6-46.7,21.7-46.7,21.7v36.9s5.1,1.5,12.7,4.1c-6.9,19.6-24.6,68.4-31.5,78.8-8.7,13-13,17.4-26.1,3.3-10.2-11-37.7-61.9-49.3-83.8,9.4-2.8,15.7-4.5,15.7-4.5,0,0,1.5-42-1.4-61.9-2.9-19.9-5.1-24.6-5.1-24.6,0,0-36.2,9.4-38-17.4-1.8-26.8,14.8-31.5,24.6-28.6,9.8,2.9,8,12.7,24.6,4.7,16.6-8,24.6-9,49.9-44.5,25.3-35.5,66.4-34.6,74.1-7.7,0,0,5.4,90.9-3.5,123.5Z"/>
      <path class="st4" d="M351.5,504.9v-21.4c0-21.3-14.5-34-19.5-49.6-3.4-10.6-.7-39.4,1.4-56.8,14.9,6.5,28.8,14,34,20.9,13.4,17.7,30.4,106.8,30.4,106.8h-46.3Z"/>
      <path class="st1" d="M284.3,351.7h-77.3c-1.8,0-3.3-1.5-3.3-3.3v-13.1c0-1.8,1.5-3.3,3.3-3.3h77.3c1.8,0,3.3,1.5,3.3,3.3v13.1c0,1.8-1.5,3.3-3.3,3.3Z"/>
      <path class="st8" d="M284.9,322.5s-24.3-3.5-41.8-15.3c-17.5-11.8-23.5-22.9-23.5-22.9,0,0,8,25.5,21.3,34.7,21.5,14.8,44,13,44,13v-9.4Z"/>
      <path class="st2" d="M351.5,483.6v21.4h-203.2c7.5-15.7,16.3-39.6,15-63-1.4-25.3-11.1-50.1-17.9-64.7,15.5-6.3,33-11.9,45.3-15.5,11.6,21.9,39.2,72.8,49.3,83.8,13,14.1,17.4,9.8,26.1-3.3,6.9-10.4,24.6-59.2,31.5-78.8,9.5,3.2,23,8.1,35.8,13.6-2.1,17.4-4.9,46.2-1.4,56.8,5.1,15.6,19.5,28.2,19.5,49.6Z"/>
      <g>
        <path class="st8" d="M341.9,421.1c-1.8,10.5-2.1,21.3-.7,31.9.1.8.6,1.4,1.4,1.4.7,0,1.5-.7,1.4-1.4-1.4-10.3-1.2-20.8.6-31.1.3-1.8-2.4-2.6-2.8-.8h0Z"/>
        <path class="st8" d="M210.3,377c6.7,0,13.3,0,20,0,3.3,0,6.5-.1,9.8,0,2.7.2,5.7.9,7.2,3.4,1,1.6,3.4.1,2.5-1.4-3.6-5.9-11.7-4.9-17.6-4.9-7.3,0-14.6,0-21.9,0-1.8,0-1.8,2.9,0,2.9h0Z"/>
        <path class="st8" d="M267,379.9c2.3,0,4.6-.2,6.9-.6.7-.1,1.2-1.1,1-1.8-.3-.8-1-1.1-1.8-1-.3,0-.5,0-.8.1-.1,0-.3,0-.4,0,0,0-.4,0-.1,0-.5,0-1,.1-1.6.2-1.1,0-2.1.1-3.2,0-.7,0-1.5.7-1.4,1.4,0,.8.6,1.4,1.4,1.4h0Z"/>
        <path class="st8" d="M144.5,417.9c8.9,14.2,14.4,30.4,15.7,47.1.1,1.8,3,1.8,2.9,0-1.4-17.2-6.9-34-16.1-48.6-1-1.6-3.5-.1-2.5,1.4h0Z"/>
      </g>
      <g>
        <path class="st8" d="M175,238.4c1.3-1.7,3.6-2.2,5.6-2,2.4.3,4.4,1.7,5.7,3.6,3.5,5.1,2.4,11.6,1.4,17.2-.3,1.8,2.4,2.6,2.8.8,1.3-7,2.3-14.9-2.6-20.8-3.9-4.6-11.4-5.3-15.2-.3-.5.6,0,1.6.5,2,.7.4,1.5,0,2-.5h0Z"/>
        <path class="st8" d="M180.3,255.6c-.2-.4-.3-.5-.4-.9-.1-.4-.2-.8-.3-1.2,0,.2,0-.2,0-.2,0-.2,0-.4,0-.6,0-.2,0-.4,0-.6,0-.1,0-.2,0-.3,0,.1,0,.1,0,0,.1-.7.4-1.4.6-2,.4-.7.6-1.1,1.2-1.6.9-.8,2.4-1.4,3.5-1.5.8,0,1.4,0,2,.1.2,0,.4.1.6.2,0,0,.5.2.4.1.4.2.7.4,1.1.6.6.4,1.6.1,2-.5.4-.7.1-1.5-.5-2-2.7-1.7-6.1-1.8-8.9-.5-2.9,1.3-4.6,4.3-4.9,7.4-.2,1.7.2,3.5,1.1,5.1.9,1.6,3.4.2,2.5-1.4h0Z"/>
      </g>
      <path class="st1" d="M184,329c-8.8,0-15.6-13.9-15.6-31.7s2.7-21.2,7.3-27l2.5,2c-4.1,5.1-6.6,14.7-6.6,25,0,15.5,5.7,28.5,12.5,28.5s12.5-13.1,12.5-28.5-5.7-28.5-12.5-28.5v-3.2c8.8,0,15.6,13.9,15.6,31.7,0,17.8-6.9,31.7-15.6,31.7Z"/>
      <path class="st8" d="M299.5,224c-3.3,5.9,1,11.9,4.9,16.2,1.1,1.2,2.2,2.4,3.2,3.8.4.6,1,1.3,1.2,2,.2.8-.4,1.4-.9,2.1-2.1,2.9-4.4,5.7-6.8,8.3-1.3,1.3.8,3.4,2,2,2.5-2.6,4.8-5.4,6.9-8.3,1-1.3,2-2.7,1.6-4.5-.3-1.5-1.3-2.8-2.3-4-2-2.6-4.5-4.7-6.2-7.5-1.6-2.5-2.6-5.8-1.1-8.6.9-1.6-1.6-3.1-2.5-1.4h0Z"/>
      <ellipse class="st1" cx="269.9" cy="225.2" rx="6.1" ry="8.8"/>
      <ellipse class="st1" cx="319.8" cy="224.6" rx="5.6" ry="8.2"/>
      <path class="st1" d="M258.4,208.4s2.4-3.9,7.7-5,7.9-.5,8.5.7c.6,1.2.4,3.6-1.5,3.9-1.9.3-5.3-.7-8.2.4-2.9,1-7.7,3.6-6.5,0Z"/>
      <path class="st1" d="M313.7,204.6s-1.2,2.1.6,3.2c1.7,1.1,2.8-.7,6.9,1.5,4.1,2.2,6.6,1.5,5.6-1.1s-12.4-7.6-13.1-3.6Z"/>
      <g>
        <path class="st5" d="M263.9,273.5c-.3,4.7.9,9.2,3.4,13,3.2,4.9,8.4,8.5,14.6,9.5,6.1.9,12-.9,16.5-4.4,3.6-2.9,6.2-6.9,7.4-11.6.2-.9-.4-1.8-1.3-2l-38.6-5.9c-.2,0-.4,0-.5,0-.7.1-1.3.7-1.3,1.5Z"/>
        <path class="st7" d="M265.2,272.1c4.1,3.9,10.8,7,18.6,8.2,7.8,1.2,15.2.2,20.3-2.4l-38.3-5.8c-.2,0-.4,0-.5,0Z"/>
        <path class="st8" d="M267.2,286.5c3.2,4.9,8.4,8.5,14.6,9.5,6.1.9,12-.9,16.5-4.4-4-2.7-9.4-4.8-15.4-5.7-5.7-.9-11.2-.6-15.7.6Z"/>
      </g>
      <g>
        <ellipse class="st9" cx="259.4" cy="252" rx="17.2" ry="12.3"/>
        <ellipse class="st9" cx="324.1" cy="255.2" rx="10.8" ry="9"/>
      </g>
    </g>
  </g>
</svg>