<?xml version="1.0" encoding="UTF-8"?>
<svg id="Object" xmlns="http://www.w3.org/2000/svg" xmlns:xlink="http://www.w3.org/1999/xlink" version="1.1" viewBox="0 0 500 500">
  <!-- Generator: Adobe Illustrator 30.1.0, SVG Export Plug-In . SVG Version: 2.1.1 Build 136)  -->
  <defs>
    <style>
      .st0 {
        fill: none;
      }

      .st1 {
        fill: #eae8d6;
      }

      .st2 {
        fill: #7f3434;
      }

      .st3 {
        fill: #e2c8c5;
      }

      .st4 {
        fill: #1e1e47;
      }

      .st5 {
        clip-path: url(#clippath-1);
      }

      .st6 {
        fill: #fff;
      }

      .st7 {
        fill: #aec655;
      }

      .st8 {
        fill: #c67f7d;
      }

      .st9 {
        fill: #699124;
      }

      .st10 {
        fill: #9b4b4b;
      }

      .st11 {
        clip-path: url(#clippath);
      }
    </style>
    <clipPath id="clippath">
      <circle class="st0" cx="250" cy="250" r="250"/>
    </clipPath>
    <clipPath id="clippath-1">
      <circle class="st0" cx="250" cy="250" r="250"/>
    </clipPath>
  </defs>
  <g class="st11">
    <circle class="st1" cx="250" cy="253.4" r="264.4"/>
  </g>
  <g class="st5">
    <g>
      <g>
        <path class="st3" d="M340,176s20.5-83-47.1-99.2c-67.6-16.2-117.2,3.7-144.3,47.6-27,43.9-15.5,106.4,14.2,126,29.7,19.6,40.5,30.2,40.5,30.2l136.6-104.6Z"/>
        <path class="st8" d="M338.9,160.2s7.5,92.4-.3,113.2c-7.9,20.8-50.9,21.8-50.9,21.8l2.3,46.1h-94.5s5.3-44.8,3.3-61.1c-2-16.2-3.3-24.6-3.3-24.6,0,0-30.2-1.5-35.5-15.5-5.3-13.9,0-28.9,10.6-33.7s21.5-3.8,23.8,2.3,1.3,13.9,4.8,14.9c3.5,1,7.1,3.3,7.9-.3s-.5-43.8-.5-43.8c0,0,19.7-28.5,132.3-19.4Z"/>
        <path class="st10" d="M287.6,295.2s-34.5,2.3-43.3-1.5-26.6-16-26.6-16c0,0,20.8,51.9,71.6,51.2l-1.7-33.7Z"/>
        <g>
          <path class="st2" d="M171.3,216.5c2.8-1.3,6.4-2.5,9.4-1,2.7,1.3,4.4,4.3,5.3,7.1,1.8,6-.2,12.3-4.3,16.9-1.2,1.4.8,3.4,2,2,5-5.6,7.4-13.6,4.6-20.8-1.3-3.3-3.6-6.6-6.9-8-3.9-1.6-8-.3-11.6,1.3-1.7.8-.2,3.2,1.4,2.5h0Z"/>
          <path class="st2" d="M175.7,232.3c-.9-.9-1-2.2-.7-3.5.4-1.4,1.6-2.4,2.9-3.1,2.5-1.3,7.2-2.2,8.7.9.3.7,1.3.9,2,.5.7-.4.9-1.3.5-2-2.3-4.7-9-4-12.8-1.8-1.9,1.1-3.5,2.8-4.1,5-.5,2.1,0,4.4,1.5,6,1.3,1.3,3.3-.7,2-2h0Z"/>
        </g>
        <g>
          <path class="st3" d="M317.2,264.6c1.1,3.4,2.3,6.8,3.6,10.2.3.7,1,1.2,1.8,1,.7-.2,1.3-1,1-1.8-1.3-3.4-2.5-6.7-3.6-10.2-.2-.7-1-1.2-1.8-1-.7.2-1.2,1-1,1.8h0Z"/>
          <path class="st3" d="M308.7,269c0,3.9,0,7.8,0,11.7,0,1.8,2.9,1.8,2.9,0-.1-3.9-.1-7.8,0-11.7,0-1.8-2.8-1.8-2.9,0h0Z"/>
          <path class="st3" d="M296.1,269.7c-.3,5.1-1,10.1-2.1,15.1-.4,1.8,2.4,2.6,2.8.8,1.2-5.2,1.9-10.5,2.2-15.8,0-1.8-2.8-1.8-2.9,0h0Z"/>
          <path class="st3" d="M285.9,273.2c-.6,2.8-1.4,5.6-2.4,8.3-.2.7.3,1.6,1,1.8.8.2,1.5-.2,1.8-1,.9-2.7,1.7-5.5,2.4-8.3.2-.7-.2-1.6-1-1.8-.7-.2-1.6.2-1.8,1h0Z"/>
        </g>
        <ellipse class="st4" cx="261.1" cy="199.2" rx="6.4" ry="9.3"/>
        <ellipse class="st4" cx="313.6" cy="198.6" rx="5.9" ry="8.6"/>
        <path class="st3" d="M248.9,181.5s2.5-4.1,8.1-5.3c5.6-1.2,8.3-.5,8.9.8.6,1.3.5,3.8-1.5,4.1s-5.6-.7-8.7.4-8.1,3.8-6.8,0Z"/>
        <path class="st3" d="M307.1,177.5s-1.2,2.2.6,3.4,3-.7,7.3,1.6c4.3,2.3,6.9,1.5,5.9-1.2s-13.1-8-13.8-3.8Z"/>
        <g>
          <path class="st2" d="M286.5,198.7c-.9,2.6-1.6,5.6-.4,8.3,1.2,2.6,3.9,4,6.2,5.5,2.8,1.8,5.6,3.5,8.4,5.3.5.3,1.4.6,1.4,1.3,0,.7-.7,1.6-1,2.1-.8,1.4-1.6,2.8-2.5,4.2-1,1.5,1.4,3,2.5,1.4.9-1.3,1.8-2.7,2.5-4.2.6-1.2,1.5-2.7,1.4-4.1-.1-1.5-1.3-2.3-2.4-3-1.5-.9-2.9-1.8-4.4-2.8s-2.9-1.8-4.4-2.8c-1.3-.8-2.6-1.5-3.8-2.5-2.5-2.2-1.7-5.3-.7-8.1.6-1.7-2.2-2.5-2.8-.8h0Z"/>
          <path class="st2" d="M269.3,243.2c-1.1,4.1,2.8,7.4,5.7,9.5,3.4,2.4,7.3,3.3,11.4,3.6,8.4.6,16.9-.4,24.6-3.9,1.7-.8.2-3.2-1.4-2.5-6.6,3-13.9,3.9-21.1,3.6-3.6-.1-7.2-.5-10.4-2.2-1.5-.8-2.8-1.9-4-3-1.2-1.1-2.6-2.6-2.1-4.3.5-1.8-2.3-2.5-2.8-.8h0Z"/>
        </g>
      </g>
      <g>
        <path class="st7" d="M161.3,356s-24-7-16.6-31c7.3-24,27.3-24.8,51.6-15.8s61.7,28.5,61.7,28.5c0,0,38.3-46.2,65.9-41.4s22.8,36.1,19.4,42l-3.4,5.9s65.9,30.6,78,64.8c12,34.2,15.8,96.2,15.8,96.2H66.3s-.8-73.6,21.8-101.1c22.5-27.4,73.3-48.1,73.3-48.1Z"/>
        <g>
          <path class="st9" d="M159.2,358.5c26.7,5.5,53.9,8.3,81.2,8.5,7.7,0,15.5-.2,23.2-.5,1.8,0,1.8-3,0-2.9-27.1,1.4-54.4.1-81.2-3.8-7.5-1.1-15-2.4-22.4-4-1.8-.4-2.6,2.4-.8,2.8h0Z"/>
          <path class="st9" d="M252,338.6c5,13.8,16.4,24.6,30.5,28.7,14.1,4.1,29,.9,41.1-7.2,6.6-4.4,12.2-10.1,16.9-16.5,1.1-1.5-1.4-2.9-2.5-1.4-7.7,10.5-18.5,19.1-31.1,22.6-13.6,3.7-28.7.5-39.4-8.7-5.7-4.9-10.1-11.2-12.6-18.2-.6-1.7-3.4-1-2.8.8h0Z"/>
          <path class="st9" d="M210.7,365.4c-6.6,7.4-8.3,17.7-10.3,27.1-2.3,11.1-4.2,22.3-5.8,33.5-.9,6.3-1.7,12.7-2.4,19.1-.2,1.8,2.7,1.8,2.9,0,1.2-10.9,2.8-21.8,4.6-32.7,1.7-10.4,3.5-20.9,6.3-31.1,1.4-5,3.3-10,6.8-13.9,1.2-1.4-.8-3.4-2-2h0Z"/>
          <path class="st9" d="M296.4,370.2c3,19.4,4.8,39.1,5.4,58.7.2,5.6.2,11.1.2,16.7,0,1.8,2.9,1.8,2.9,0,.2-19.9-.9-39.8-3.3-59.5-.7-5.6-1.4-11.1-2.3-16.7-.3-1.8-3-1-2.8.8h0Z"/>
        </g>
        <circle class="st6" cx="194.3" cy="454.9" r="12.1"/>
        <circle class="st6" cx="306.2" cy="451.9" r="12.1"/>
        <g>
          <path class="st9" d="M131.7,407.3c12.2,3.9,18.9,15.8,21.5,27.6,1.5,6.9,2,13.9,2.3,20.9.3,7.5.3,15.1.2,22.6,0,8.5-.2,17,0,25.4,0,1.8,2.9,1.8,2.9,0-.4-15.7.4-31.4-.2-47.1-.5-13.7-1.6-28.9-9.9-40.3-4-5.5-9.4-9.8-15.9-11.9-1.8-.6-2.5,2.2-.8,2.8h0Z"/>
          <path class="st9" d="M376.9,421.9c2.6,20.8,4.8,41.7,6.5,62.6.5,5.9.9,11.8,1.4,17.8.1,1.8,3,1.8,2.9,0-1.5-20.9-3.4-41.8-5.8-62.7-.7-5.9-1.4-11.8-2.1-17.7-.2-1.8-3.1-1.8-2.9,0h0Z"/>
        </g>
      </g>
    </g>
  </g>
</svg>