<?xml version="1.0" encoding="UTF-8"?>
<svg id="Object" xmlns="http://www.w3.org/2000/svg" xmlns:xlink="http://www.w3.org/1999/xlink" version="1.1" viewBox="0 0 500 500">
  <!-- Generator: Adobe Illustrator 30.1.0, SVG Export Plug-In . SVG Version: 2.1.1 Build 136)  -->
  <defs>
    <style>
      .st0 {
        fill: none;
      }

      .st1 {
        fill: #35356d;
      }

      .st2 {
        fill: #336ae5;
      }

      .st3 {
        fill: #3888fc;
      }

      .st4 {
        fill: #ccdcff;
      }

      .st5 {
        fill: #ffc9c0;
      }

      .st6 {
        fill: #bc4a55;
      }

      .st7 {
        clip-path: url(#clippath-1);
      }

      .st8 {
        fill: #fff;
      }

      .st9 {
        fill: #e2bab5;
      }

      .st10 {
        fill: #f9e8e5;
      }

      .st11 {
        fill: #e27169;
      }

      .st12 {
        fill: #ffaa9f;
      }

      .st13 {
        clip-path: url(#clippath);
      }
    </style>
    <clipPath id="clippath">
      <circle class="st0" cx="250" cy="250" r="250"/>
    </clipPath>
    <clipPath id="clippath-1">
      <circle class="st0" cx="250" cy="250" r="250"/>
    </clipPath>
  </defs>
  <g class="st13">
    <circle class="st4" cx="250" cy="252.6" r="265.2"/>
  </g>
  <g class="st7">
    <g>
      <g>
        <path class="st2" d="M234.1,239.6c-14.5,73.1-63.7,74.1-106,66.8-42.2-7.3-42.9-75.8-23.2-91.8,19.7-15.9,24.6-27.4,8.3-57.8-16.3-30.5-14.2-73.8,42.9-81.4,57.1-7.6,63.6,43.6,63.6,43.6,0,0,28.9,47.4,14.3,120.5Z"/>
        <path class="st3" d="M219.5,324.1c-12.5-30.8-49.5-39.8-64.8-110.8-15.2-71,49.2-129.9,105.3-131.9,56.1-2.1,74.1,37.6,74.1,37.6,0,0,39.4,3.9,45.4,40,6,36.1-21.8,71.5-21.8,71.5,0,0-125.7,124.5-138.2,93.7Z"/>
        <path class="st5" d="M315.4,156.8s-17.1,35.6-46.8,57.7c-29.6,22.1-49.9,15.6-55.6,11.7s-30.4-9.9-31.2,17.4,31.9,29.6,31.9,29.6v64.9s-45.2,22.6-45.2,22.6c0,0,23.4,41.6,90.4,51.4,67,9.9,71.1-50.7,71.1-50.7l-35-16.8v-30.2s39.2,4.2,57.4-19.5c18.2-23.6,5.7-107.5,5.7-107.5-14.8-17.7-42.9-30.6-42.9-30.6Z"/>
        <g>
          <path class="st11" d="M196.7,231.8c-1.8-.2-1.8,2.7,0,2.9,5.3.5,9.7,4.3,11.9,9.1,1.2,2.5,1.8,5.4,1.8,8.1,0,2.5-.8,5.6-3.3,6.6-1.7.7-.9,3.5.8,2.8,7-2.8,6.1-12.2,3.8-17.9-2.5-6.2-8-10.9-14.9-11.6h0Z"/>
          <path class="st11" d="M209.5,250.6c1,1.5,3.5.1,2.5-1.4-1.6-2.5-3.9-4.7-7-5.1-3.3-.4-6,1.7-8.5,3.5-.6.5-.9,1.2-.5,2,.4.6,1.3,1,2,.5,1.1-.8,2.3-1.6,3.5-2.3,1-.6,2-1,3.1-.9,2.2.2,3.9,2,5,3.8h0Z"/>
        </g>
        <path class="st11" d="M295.1,314.4v36.6s-16.1-2-36.6-20.1c-20.5-18.1-25.2-49.8-25.2-49.8,0,0,9.6,11.2,26.8,22.2,17.1,11,35.1,11,35.1,11h0Z"/>
        <g>
          <ellipse class="st12" cx="348.1" cy="257.2" rx="13" ry="9.6"/>
          <ellipse class="st12" cx="286.6" cy="253.6" rx="19.1" ry="12.5"/>
        </g>
        <g>
          <ellipse class="st1" cx="343.5" cy="225.2" rx="4.9" ry="8.1"/>
          <ellipse class="st1" cx="289.1" cy="225" rx="6" ry="8.3"/>
          <g>
            <path class="st6" d="M297.6,266.8c.2,0,.3,0,.5,0l32.8,5c.8.1,1.3.9,1.1,1.7-1,4-3.2,7.5-6.3,9.9-3.8,3-8.8,4.6-14,3.8-5.3-.8-9.7-3.9-12.4-8.1-2.1-3.2-3.1-7-2.9-11,0-.6.5-1.1,1.1-1.3Z"/>
            <path class="st8" d="M298.1,266.7l32.6,4.9c-4.3,2.2-10.6,3-17.3,2-6.6-1-12.3-3.6-15.8-6.9.2,0,.3,0,.5,0Z"/>
            <path class="st11" d="M312.7,278.5c5.1.8,9.7,2.5,13.1,4.8-3.8,3-8.8,4.6-14,3.8-5.3-.8-9.7-3.9-12.4-8.1,3.8-1,8.5-1.3,13.3-.5Z"/>
          </g>
          <path class="st11" d="M323.9,225.2c.5-1.8-2.3-2.5-2.8-.8-.8,3-1.1,6.2-.3,9.2.8,2.8,2.5,4.9,4.6,6.9,1,.9,2,1.8,3,2.8.9.9,2.5,2.2,2.7,3.5.2,1.3-1.6,2.5-2.5,3.1-1.3,1-2.7,1.7-4.2,2.3-1.7.6-1,3.4.8,2.8,3-1.1,6.2-2.9,8.1-5.6,2-2.9-.5-6-2.6-8-2.1-2.1-4.7-3.9-6.2-6.5-1.7-3-1.4-6.5-.5-9.7h0Z"/>
        </g>
        <path class="st2" d="M347.4,208.5c-7.8-.3-11.6,5.5-13,3.1-1.4-2.4,3.9-8.3,13.6-8.3s9.9,3.8,11,5.9c.3.5-.2,1.1-.7,1-1.8-.5-5.5-1.4-10.8-1.7Z"/>
        <path class="st2" d="M293.6,203.3c-7.8-.3-11.6,5.5-13,3.1s3.9-8.3,13.6-8.3,9.9,3.8,11,5.9c.3.5-.2,1.1-.7,1-1.8-.5-5.5-1.4-10.8-1.7Z"/>
        <g>
          <path class="st8" d="M329.2,230.4c0-13.6,8.2-24.7,18.3-24.7s18.3,11.1,18.3,24.7c0,13.6-8.2,24.7-18.3,24.7-10.1,0-18.3-11.1-18.3-24.7ZM332.1,230.4c0,12,6.9,21.8,15.5,21.8,8.5,0,15.5-9.8,15.5-21.8,0-12-6.9-21.8-15.5-21.8s-15.5,9.8-15.5,21.8Z"/>
          <path class="st8" d="M268,230.4c0-16.2,11.1-29.3,24.9-29.3,13.7,0,24.9,13.1,24.9,29.3,0,16.2-11.1,29.3-24.9,29.3s-24.9-13.1-24.9-29.3ZM270.8,230.4c0,14.6,9.9,26.4,22,26.4s22-11.9,22-26.4-9.9-26.4-22-26.4c-12.1,0-22,11.9-22,26.4Z"/>
          <path class="st8" d="M211.6,226.4c-.2-.8.3-1.5,1.1-1.7l61.1-12.5c.8-.2,1.5.3,1.7,1.1.2.8-.3,1.5-1.1,1.7l-61.1,12.5c0,0-.2,0-.3,0-.7,0-1.3-.5-1.4-1.1Z"/>
          <path class="st8" d="M331.2,222.8c-.3-.2-7.3-6-15.3-.2-.6.5-1.5.3-2-.3-.5-.6-.3-1.5.3-2,9.9-7.1,18.8.3,18.9.4.6.5.7,1.4.2,2-.3.3-.7.5-1.1.5s-.7-.1-.9-.3Z"/>
        </g>
      </g>
      <g>
        <path class="st10" d="M182.8,351.6c8.6-3.4,14.3-5.4,14.3-5.4,0,0,35.7,60,74,59,38.2-1,39.1-53.6,39.1-53.6,0,0,3.1,1.3,8.3,3.7,1,2.7,2.1,5.6,3.2,8.7,12.4,33.6,31.5,90.4,32.7,151.6h-144.9c-7-51.5-18.2-122.5-31.2-162.2,1.6-.6,3.1-1.3,4.5-1.8Z"/>
        <path class="st1" d="M401.9,401.3c13.9,23.8,22.2,114.2,22.2,114.2h-69.7c-1.4-66.9-24.1-128.4-36-160.3,20.4,9.4,72.3,27.1,83.5,46.1Z"/>
        <path class="st1" d="M97.8,404.5c11.4-20.4,55.1-40.6,80.5-51.1,13,39.6,24.2,110.7,31.2,162.2H76s5.4-81.8,21.8-111.1Z"/>
        <path class="st1" d="M401.9,401.3c13.9,23.8,22.2,114.2,22.2,114.2h-69.7c-1.4-66.9-24.1-128.4-36-160.3,20.4,9.4,72.3,27.1,83.5,46.1Z"/>
        <path class="st1" d="M97.8,404.5c11.4-20.4,55.1-40.6,80.5-51.1,13,39.6,24.2,110.7,31.2,162.2H76s5.4-81.8,21.8-111.1Z"/>
        <path class="st8" d="M197.1,346.2s35.7,60,74,59c38.2-1,39.1-53.6,39.1-53.6,0,0,3.1,1.3,8.3,3.7,1,2.7,2.1,5.6,3.2,8.7.6,23.3-5.7,55-43.8,57.5-46.2,3.1-81-46-95-69.9,8.6-3.4,14.3-5.4,14.3-5.4Z"/>
      </g>
      <g>
        <path class="st9" d="M348.2,480.5c1.8-.4,1-3.2-.8-2.8-9.4,2.2-18.8,4-28.3,5.4-16.8,2.5-33.9,3.8-50.9,3.9-17,.1-34.1-1-51-3.3-1.8-.3-2.6,2.5-.8,2.8,9.6,1.3,19.3,2.3,29.1,2.9,17.2,1,34.5.7,51.7-.8,17.2-1.5,34.2-4.2,51-8.1h0Z"/>
        <path class="st9" d="M334.6,497.3c1.8-.3,1-3.1-.8-2.8-16.2,2.6-32.4,5.2-48.6,7.8-1.8.3-1,3.1.8,2.8,16.2-2.6,32.4-5.2,48.6-7.8h0Z"/>
      </g>
    </g>
  </g>
</svg>