<?xml version="1.0" encoding="UTF-8"?>
<svg id="Object" xmlns="http://www.w3.org/2000/svg" xmlns:xlink="http://www.w3.org/1999/xlink" version="1.1" viewBox="0 0 500 500">
  <!-- Generator: Adobe Illustrator 30.1.0, SVG Export Plug-In . SVG Version: 2.1.1 Build 136)  -->
  <defs>
    <style>
      .st0 {
        fill: none;
      }

      .st1 {
        fill: #35356d;
      }

      .st2 {
        fill: #72729b;
      }

      .st3 {
        fill: #3888fc;
      }

      .st4 {
        fill: #ccdcff;
      }

      .st5 {
        fill: #2962d3;
      }

      .st6 {
        fill: #ffc9c0;
      }

      .st7 {
        fill: #bc4a55;
      }

      .st8 {
        clip-path: url(#clippath-1);
      }

      .st9 {
        fill: #fff;
      }

      .st10 {
        fill: #e27169;
      }

      .st11 {
        fill: #bbd8fc;
      }

      .st12 {
        fill: #91bded;
      }

      .st13 {
        clip-path: url(#clippath);
      }

      .st14 {
        fill: #7ca3e0;
      }
    </style>
    <clipPath id="clippath">
      <circle class="st0" cx="250" cy="250" r="250"/>
    </clipPath>
    <clipPath id="clippath-1">
      <circle class="st0" cx="250" cy="250" r="250"/>
    </clipPath>
  </defs>
  <g class="st13">
    <circle class="st4" cx="250" cy="251.9" r="265.9"/>
  </g>
  <g class="st8">
    <g>
      <g>
        <path class="st2" d="M124.1,193.2s-4,29.2,16.6,60.1c20.5,30.9,37.1,26.1,57.5,46,20.4,19.8,84.9-115,45-140.1-39.9-25.1-119.1,34-119.1,34Z"/>
        <path class="st6" d="M325.2,148.7s26.7,94.5,8.4,125.4c-18.3,30.9-42.8,30.2-42.8,30.2l5.9,44.3h-93.3s1.2-25.7-4.2-45.5c-5.4-19.8-14.1-28.9-14.1-28.9,0,0-22.8,2-28.2-8.9-5.4-10.9-7.8-28.7,4.4-36.7,5.8-3.8,21.9-6.1,26.1,1.1,4.2,7.2,3.7,19.5,8.2,19s9.9-2.7,9.9-4.2-7.2-43.8-7.2-43.8c0,0-6.4-20,44-34.6,50.5-14.6,82.9-17.3,82.9-17.3Z"/>
        <g>
          <path class="st10" d="M163.3,240.3c2.4-2.4,6-2.9,9.3-2.3,3.1.5,6.1,1.6,8.1,4.2,3.8,5.1,3.5,12.8,2,18.7-.5,1.8,2.3,2.5,2.8.8,1.8-7,1.9-16.3-3.2-22-2.6-2.9-6.5-4.1-10.2-4.6-3.9-.5-7.9.4-10.8,3.2-1.3,1.3.7,3.3,2,2h0Z"/>
          <path class="st10" d="M172.3,254.7c-.4-3,1-5.7,3.7-7.1.6-.3,1.2-.5,1.9-.6.7,0,1.4.2,2,.6,1.1.7,2.6,1.6,3.1,2.9.3.7,1,1.2,1.8,1,.7-.2,1.3-1,1-1.8-.8-2-2.5-3.4-4.3-4.5-2-1.2-4.1-1.2-6.2-.4-3.9,1.6-6.3,5.7-5.8,9.8,0,.8.6,1.4,1.4,1.4.7,0,1.5-.7,1.4-1.4h0Z"/>
        </g>
        <path class="st10" d="M214.6,275.3s24,41.1,76.2,28.9l5.2,39.1s-57.2-16.8-81.4-68Z"/>
        <g>
          <g>
            <ellipse class="st1" cx="320.5" cy="200.5" rx="5.4" ry="8.8" transform="translate(-25.9 49.1) rotate(-8.4)"/>
            <ellipse class="st1" cx="261.9" cy="209" rx="6.5" ry="9" transform="translate(-27.8 40.7) rotate(-8.4)"/>
            <g>
              <path class="st7" d="M276.7,254.1c.3,4.4,2.1,8.3,4.8,11.4,3.6,4.1,8.8,6.7,14.7,6.7,5.7,0,10.9-2.4,14.5-6.3,2.9-3.1,4.8-7.2,5.2-11.7,0-.9-.6-1.6-1.5-1.6h-36.1c-.2-.1-.3,0-.5,0-.6.2-1.1.8-1,1.5Z"/>
              <path class="st9" d="M277.7,252.6c4.3,3,10.8,4.9,18.1,5,7.3,0,13.9-1.9,18.3-4.9h-35.9c-.2-.1-.3,0-.5,0Z"/>
              <path class="st10" d="M281.5,265.5c3.6,4.1,8.8,6.7,14.7,6.7,5.7,0,10.9-2.4,14.5-6.3-4.1-1.9-9.2-3.1-14.9-3.1-5.4,0-10.3,1-14.3,2.7Z"/>
            </g>
            <path class="st10" d="M296.4,203.5c-.4,3.3-.2,6.7,1.2,9.7,1.3,2.9,3.6,5,6.2,6.7,1.2.9,2.5,1.6,3.7,2.5,1.1.8,2.7,1.9,3.2,3.2.6,1.5-1.5,3.3-2.4,4.2-1.2,1.2-2.6,2.2-4.1,3-1.6.9-.2,3.4,1.4,2.5,2.9-1.6,6.4-4.2,7.7-7.4,1.4-3.5-2-6.2-4.5-8-2.6-1.9-5.6-3.4-7.5-5.9-2.2-3-2.4-6.9-2-10.5.2-1.8-2.6-1.8-2.9,0h0Z"/>
          </g>
          <g>
            <path class="st9" d="M327.4,232.1c-10,0-19.3-10.1-21.3-23.7h0c-2.2-14.6,4.9-27.7,15.7-29.3,5.3-.8,10.7,1.3,15.2,5.8,4.3,4.4,7.3,10.7,8.3,17.7,2.2,14.6-4.9,27.7-15.7,29.3-.7.1-1.5.2-2.2.2ZM324,181.8c-.6,0-1.2,0-1.8.1-9.3,1.4-15.2,13.1-13.3,26.1h0c1.9,13,11,22.5,20.3,21.1,9.3-1.4,15.2-13.1,13.3-26.1-.9-6.4-3.6-12.1-7.6-16.1-3.3-3.4-7.1-5.1-10.9-5.1Z"/>
            <path class="st9" d="M268,245.9c-6,0-11.9-2.3-16.9-6.7-5.9-5.2-9.8-12.6-11-21h0c-1.2-8.3.3-16.6,4.4-23.3,4.1-6.7,10.4-11,17.5-12.1,14.7-2.2,28.7,10.2,31.3,27.5,1.2,8.3-.3,16.6-4.4,23.3-4.1,6.7-10.4,11-17.5,12.1-1.1.2-2.3.3-3.4.3ZM242.9,217.7c1.1,7.7,4.7,14.5,10.1,19.3,5.3,4.7,11.7,6.7,18,5.8,6.3-.9,11.8-4.8,15.5-10.8,3.7-6.1,5.2-13.7,4-21.4-2.3-15.8-14.9-27-28-25.1-6.3.9-11.8,4.8-15.5,10.8-3.7,6.1-5.2,13.7-4,21.4h0Z"/>
            <path class="st9" d="M180.2,223.8c-.6,0-1.1-.4-1.3-.9-.3-.7.1-1.6.9-1.8l63.7-23.2c.7-.3,1.6.1,1.8.9s-.1,1.6-.9,1.8l-63.7,23.2c-.2,0-.3,0-.5,0Z"/>
            <path class="st9" d="M289.2,202.4c-.4,0-.7-.1-1-.4-.6-.6-.5-1.5,0-2,9.4-9.2,20.1-2.7,20.2-2.6.7.4.9,1.3.5,2-.4.7-1.3.9-2,.5-.4-.2-8.9-5.4-16.7,2.2-.3.3-.6.4-1,.4Z"/>
          </g>
        </g>
        <path class="st1" d="M129.3,223c-3.8,8.8-12.1-6.6-14.2-16.3-1.8-8.3-4.1-13.4-5.8-28.6-4.2-37.4,34.4-45.5,34.4-45.5,0,0,20.5-70.3,76.4-68,55.9,2.2,79.7,17.1,95.5.2,15.8-16.8,25.2-7.9,29.9,2.5,4.7,10.4,22.5,61.3-19.8,89.3s-124.9,6.9-153.1,19c-15.8,6.8-38.7,36.9-43.3,47.4Z"/>
      </g>
      <g>
        <path class="st11" d="M350.7,511.9h-149.2l-16.5-112.4-8.4-57.4,21.4-5.5s-2.9-19.8,4.9-24.4c7.7-4.6,35.6,2.9,60.5,2.9s29.1-3.4,33,3.4,4.5,24.8,4.5,24.8l9.4,6.8,26.8,107.1,13.7,54.7Z"/>
        <path class="st12" d="M350.7,511.9h-149.2l-16.5-112.4c23.6,19.4,76.1,54.2,152.1,57.7l13.7,54.7Z"/>
        <path class="st3" d="M309.4,351.5c4.5,28.4,14.9,100.2,13,149.5-.2,4.2-.7,8.1-1.6,11.6h110.8s-22.3-110.7-36.3-127.5c-10.6-12.7-53.5-26.1-74-32-6.7-1.9-11-3-11-3,0,0-.2.5-.8,1.4Z"/>
        <path class="st3" d="M56.3,511.2c.4.4.9.9,1.4,1.4h165.6c-7.8-48.4-23.6-129.4-46.8-170.5-1.9.7-4.5,1.8-7.9,3.2-24.5,10-83.1,35.6-95.3,54.5-12.9,20.1-16.2,89.2-17,111.4Z"/>
        <g>
          <path class="st5" d="M373,419.8c3.7,23.6,7.2,47.3,10.6,70.9,1,6.7,1.9,13.4,2.9,20,.3,1.8,3,1,2.8-.8-3.3-23.7-6.8-47.3-10.4-71-1-6.7-2-13.3-3.1-20-.3-1.8-3-1-2.8.8h0Z"/>
          <path class="st5" d="M135.5,409.1c11.6,6,13.8,21.5,14.7,33.1,1.1,14.9.8,29.9.3,44.9-.2,8.2-.4,16.5-.1,24.7,0,1.8,2.9,1.8,2.9,0-.4-14.8.5-29.5.6-44.3,0-8.1-.1-16.3-.7-24.5-.5-7-1.3-14.2-3.8-20.9-2.3-6.4-6.2-12.5-12.4-15.7-1.6-.8-3.1,1.6-1.4,2.5h0Z"/>
        </g>
        <g>
          <path class="st14" d="M196.6,337c8.7,11.4,22.3,17,36.1,19.3,15.1,2.5,31,2.3,45.6-2.5,7.7-2.6,14.9-6.3,21.5-11,1.5-1.1,0-3.6-1.4-2.5-11.5,8.3-25.1,13.3-39.3,14.5-7.5.6-15.1.3-22.5-.7-7.1-1-14.2-2.6-20.7-5.6-6.5-3-12.4-7.2-16.8-12.9-1.1-1.4-3.6,0-2.5,1.4h0Z"/>
          <path class="st14" d="M297.1,346.2c-1.2,4-3.7,7.3-6.6,10.2-2.9,3-6.2,5.6-9.6,8.1-7,5.1-14.7,9.1-22.9,12-1.7.6-1,3.4.8,2.8,6.7-2.4,13.1-5.5,19.1-9.3,5.9-3.7,11.7-8.1,16.3-13.3,2.5-2.8,4.5-6,5.6-9.6.5-1.8-2.2-2.5-2.8-.8h0Z"/>
        </g>
      </g>
    </g>
  </g>
</svg>