<?xml version="1.0" encoding="UTF-8"?>
<svg id="Object" xmlns="http://www.w3.org/2000/svg" xmlns:xlink="http://www.w3.org/1999/xlink" version="1.1" viewBox="0 0 500 500">
  <!-- Generator: Adobe Illustrator 30.1.0, SVG Export Plug-In . SVG Version: 2.1.1 Build 136)  -->
  <defs>
    <style>
      .st0 {
        fill: none;
      }

      .st1 {
        fill: #35356d;
      }

      .st2 {
        fill: #ffe1ca;
      }

      .st3 {
        fill: #ffc9c0;
      }

      .st4 {
        fill: #6d6da5;
      }

      .st5 {
        fill: #bc4a55;
      }

      .st6 {
        clip-path: url(#clippath-1);
      }

      .st7 {
        fill: #fff;
      }

      .st8 {
        fill: #c14f2d;
      }

      .st9 {
        fill: #e27169;
      }

      .st10 {
        fill: #ffaa9f;
      }

      .st11 {
        clip-path: url(#clippath);
      }

      .st12 {
        fill: #ff9a41;
      }
    </style>
    <clipPath id="clippath">
      <circle class="st0" cx="250" cy="250" r="250"/>
    </clipPath>
    <clipPath id="clippath-1">
      <circle class="st0" cx="250" cy="250" r="250"/>
    </clipPath>
  </defs>
  <g class="st11">
    <circle class="st2" cx="250" cy="253.5" r="264.4"/>
  </g>
  <g class="st6">
    <g>
      <path class="st1" d="M395.7,359.2s17.1,29.3,24.1,72.2c7,42.9,6.3,76.7,6.3,76.7H60.2s13.6-139.9,47.8-177.2,273-12.6,287.7,28.2Z"/>
      <path class="st12" d="M167.2,283.2s-24.1-31-26.5-69.8,25.1-117.9,87.2-135c62.1-17.1,106,9.4,121.7,62.8,15.7,53.4,0,121,0,121,0,0,24.8,15.7,27.9,30.7,3.1,15,1.4,23.7,1.4,23.7,0,0,15,18.1,16.7,28.9,1.7,10.8,1.7,13.6,1.7,13.6,0,0-33.1-.7-38.7,3.8-5.6,4.5-35.9,61.7-104.3,45.3-68.4-16.4-98-52.3-119.3-62.1-21.3-9.8-38.7-.3-38.7-.3,0,0,23-75.3,70.8-62.8Z"/>
      <g>
        <path class="st8" d="M166.5,285.2c13.9,9.8,30.3,15.4,46.7,19.6,17.3,4.4,35.3,6.9,53.1,4.9,9.7-1.1,19.1-3.4,28-7.3,1.7-.7.2-3.2-1.4-2.5-15.7,6.8-33.1,8.6-50,7.2-8.9-.7-17.6-2.3-26.3-4.4-8.1-2-16.2-4.3-24.1-7.3-8.7-3.2-17-7.3-24.6-12.7-1.5-1.1-2.9,1.4-1.4,2.5h0Z"/>
        <path class="st8" d="M346.9,262.5c-13.8,14.2-29.3,26.7-46.2,37.1-16.9,10.4-35,18.6-54,24.5-10.7,3.3-21.6,5.9-32.7,7.7-1.8.3-1,3.1.8,2.8,19.8-3.2,39.2-9,57.5-17,18.3-8,35.6-18.3,51.4-30.5,8.9-6.9,17.3-14.4,25.2-22.5,1.3-1.3-.7-3.4-2-2h0Z"/>
        <path class="st8" d="M132.8,309.8c12.5,8.9,25.2,17.5,38.1,25.8,1.6,1,3-1.5,1.4-2.5-12.9-8.3-25.6-16.9-38.1-25.8-1.5-1.1-2.9,1.4-1.4,2.5h0Z"/>
        <path class="st8" d="M179.9,339.9c7.4,3.9,15.1,7.2,23.1,9.6,1.8.5,2.5-2.2.8-2.8-7.7-2.4-15.2-5.5-22.4-9.4-1.6-.9-3.1,1.6-1.4,2.5h0Z"/>
        <path class="st8" d="M194.3,376.8c12.7,9.7,25.8,19.2,41.6,22.9,15.7,3.6,32.2,2.2,47.7-1.6,7.1-1.7,15.9-3.6,19.8-10.5.9-1.6-1.6-3.1-2.5-1.4-3.2,5.7-10.6,7.3-16.4,8.7-7.6,1.9-15.3,3.3-23.1,3.7-7.6.5-15.4.2-22.9-1.4-7.6-1.6-14.8-4.4-21.5-8.2-7.5-4.3-14.4-9.5-21.3-14.8-1.5-1.1-2.9,1.4-1.4,2.5h0Z"/>
        <path class="st8" d="M378.5,317c-8.2,15.3-22.1,26.6-37.1,34.9-17.6,9.8-36.9,15.7-55.5,23.3-5.1,2.1-10.3,4.2-14.9,7.3-4.5,3.1-8.3,7-12,11-1.3,1.3.8,3.4,2,2,3.3-3.6,6.7-7.2,10.7-10.1,4-2.9,8.5-4.9,13.1-6.8,9.5-3.9,19.1-7.4,28.7-11.1,17.5-6.8,34.8-14.5,49.1-26.8,7.4-6.3,13.8-13.8,18.4-22.4.9-1.6-1.6-3.1-2.5-1.4h0Z"/>
        <path class="st8" d="M187.6,129.8c-3.2,7.7-6.4,15.5-9.6,23.2-.3.7.3,1.6,1,1.8.8.2,1.5-.3,1.8-1,3.2-7.7,6.4-15.5,9.6-23.2.3-.7-.3-1.6-1-1.8-.8-.2-1.5.3-1.8,1h0Z"/>
        <path class="st8" d="M172.3,166.7c-4,14-5.7,28.5-4.9,43,0,1.8,3,1.8,2.9,0-.8-14.3.9-28.6,4.8-42.3.5-1.8-2.3-2.5-2.8-.8h0Z"/>
      </g>
      <path class="st3" d="M332.8,268.6c-13.3,33.5-62.5,39.2-88.4,30.6-25.9-8.6-46-51-40.3-104.4,1.3-12.4,4.6-23.5,9.4-33.2,15.7-32.3,47-49.4,73.5-46.6,9.4,1,17.3,4.3,23.8,8.5,11.3,7.3,19.6,18.2,23.9,30.7,1.7,4.9,2.8,10.1,3.2,15.4,2.1,25.6,4.4,74.8-5.2,98.9Z"/>
      <path class="st7" d="M334.8,154.3c-47.6-8.6-93.7-.1-121.3,7.4,15.7-32.3,47-49.4,73.5-46.6,9.4,1,17.3,4.3,23.8,8.5,11.3,7.3,19.6,18.2,23.9,30.7Z"/>
      <ellipse class="st1" cx="253" cy="202.8" rx="7.2" ry="10.5"/>
      <ellipse class="st1" cx="312.6" cy="202" rx="6.7" ry="9.8"/>
      <path class="st1" d="M239.2,182.6s2.9-4.6,9.2-6c6.4-1.4,9.4-.6,10.1.9.7,1.5.5,4.4-1.7,4.7-2.3.3-6.4-.8-9.9.4-3.5,1.2-9.2,4.4-7.8,0Z"/>
      <path class="st1" d="M305.3,178.1s-1.4,2.5.7,3.8,3.4-.8,8.3,1.8,7.8,1.7,6.7-1.3c-1.1-3.1-14.8-9.1-15.7-4.4Z"/>
      <path class="st9" d="M289.3,206.2c-1.5,2-1.6,4.8-.8,7.1,1,2.6,2.9,4.6,4.8,6.5,1.1,1.1,2.1,2.1,3.2,3.2.9.9,2.3,1.8,2.8,3,1.2,2.8-1.8,5.4-3.5,7-1.4,1.2.7,3.3,2,2,2-1.9,4.1-4,4.5-6.8.2-1.3,0-2.7-.6-3.8-.7-1.2-1.8-2.1-2.8-3.1-2.1-2-4.4-4-6.2-6.3-1.6-2.1-2.7-5-1-7.3,1.1-1.5-1.4-2.9-2.5-1.4h0Z"/>
      <g>
        <path class="st5" d="M260.1,248.6c-.3,4.6.9,9,3.3,12.7,3.1,4.8,8.2,8.3,14.3,9.3,6,.9,11.7-.8,16.1-4.3,3.5-2.8,6.1-6.8,7.2-11.4.2-.9-.4-1.8-1.3-1.9l-37.8-5.7c-.2,0-.4,0-.5,0-.7.1-1.3.7-1.3,1.4Z"/>
        <path class="st7" d="M261.4,247.1c4.1,3.8,10.6,6.8,18.2,8,7.7,1.2,14.9.2,19.9-2.3l-37.5-5.7c-.2,0-.4,0-.5,0Z"/>
        <path class="st9" d="M263.4,261.3c3.1,4.8,8.2,8.3,14.3,9.3,6,.9,11.7-.8,16.1-4.3-3.9-2.6-9.2-4.7-15.1-5.6-5.6-.9-10.9-.6-15.3.6Z"/>
      </g>
      <g>
        <ellipse class="st10" cx="244.6" cy="230.4" rx="16.8" ry="12"/>
        <ellipse class="st10" cx="322.1" cy="229.5" rx="12.7" ry="11.2"/>
      </g>
      <g>
        <path class="st4" d="M152.8,366.7c8.3,15.2,10.4,32.8,9.9,49.9-.6,19.1-4.4,37.8-6,56.8-.9,10.7-.2,21.8-2.5,32.4-.4,1.8,2.4,2.6,2.8.8,2.1-9.6,1.7-19.4,2.3-29.2.7-9.8,2-19.6,3.3-29.4,2.4-18.2,4.5-36.6,1.7-55-1.4-9.7-4.3-19.1-9-27.7-.9-1.6-3.4-.2-2.5,1.4h0Z"/>
        <path class="st4" d="M376.7,371c-1.3,8.8,1,17.3,3.5,25.7,2.6,8.5,4.8,17,6.5,25.6,3.4,17.4,5,35.1,5.7,52.7.4,10,.6,20,.6,30,0,1.8,2.9,1.8,2.9,0-.1-17.6-.5-35.1-2.1-52.6-1.6-17.5-4.4-34.9-9.4-51.7-2.7-9.3-6.4-19-4.9-28.9.3-1.8-2.5-2.6-2.8-.8h0Z"/>
        <path class="st4" d="M175,472.7c23.7,6,47.8,10.3,72.1,12.9,24.3,2.6,48.8,3.4,73.2,2.5,13.7-.5,27.4-1.6,41-3.2,1.8-.2,1.8-3.1,0-2.9-24.2,2.9-48.6,4-73,3.4-24.2-.6-48.4-2.9-72.3-7-13.5-2.3-26.9-5.1-40.2-8.5-1.8-.5-2.6,2.3-.8,2.8h0Z"/>
      </g>
    </g>
  </g>
</svg>