<?xml version="1.0" encoding="UTF-8"?>
<svg id="Object" xmlns="http://www.w3.org/2000/svg" xmlns:xlink="http://www.w3.org/1999/xlink" version="1.1" viewBox="0 0 500 500">
  <!-- Generator: Adobe Illustrator 30.1.0, SVG Export Plug-In . SVG Version: 2.1.1 Build 136)  -->
  <defs>
    <style>
      .st0 {
        fill: none;
      }

      .st1 {
        fill: #7f3434;
      }

      .st2 {
        fill: #1e1e47;
      }

      .st3 {
        clip-path: url(#clippath-1);
      }

      .st4 {
        fill: #aec655;
      }

      .st5 {
        fill: #c67f7d;
      }

      .st6 {
        fill: #699124;
      }

      .st7 {
        fill: #9b4b4b;
      }

      .st8 {
        fill: #e5e18f;
      }

      .st9 {
        clip-path: url(#clippath);
      }
    </style>
    <clipPath id="clippath">
      <circle class="st0" cx="250" cy="250" r="250"/>
    </clipPath>
    <clipPath id="clippath-1">
      <circle class="st0" cx="250" cy="250" r="250"/>
    </clipPath>
  </defs>
  <g class="st9">
    <circle class="st8" cx="250" cy="248.7" r="308.8"/>
  </g>
  <g class="st3">
    <g>
      <g>
        <path class="st2" d="M181.5,320.9c-10.4-34.1-52.5-56-65.9-80-13.4-23.9,12.8-45.2,12.8-45.2,0,0-19.7-24.3-9.5-49.8,10.2-25.6,44.7-25.5,44.7-25.5,0,0,1-35.1,32.2-44,31.2-8.8,54.6,20.2,54.6,20.2,0,0,8.8-20.4,40.6-24.1,31.7-3.7,37.6,37.1,37.6,37.1,0,0,29.2-12.3,38.1,12s-23.5,38.2-23.5,38.2c0,0,24.6,8.5,20.2,26.2-4.4,17.7-33.3,13.9-33.3,13.9,0,0-138,155-148.4,120.9Z"/>
        <path class="st5" d="M143.2,354.4c14-4.3,28.1-11.5,32.6-13.9.8-2.1,1.5-4.5,2-7,3.2-17-2.4-65.4-2.4-65.4,0,0-23.3-11.1-22.9-29,.3-17.9,13.8-24.4,24.4-21.3,10.6,3.1,14.6,9.2,14.1,15.7-.5,6.6-.7,13.1,1.6,13.4,2.3.3,7.7,2,8.5-2.8.8-4.7,2-37.9,2-37.9,0,0,12.8-.8,17.4-5.6,4.6-4.7,7.1-10.5,7.1-10.5,0,0,28.7,4.6,39,0,10.3-4.6,14.4-10.6,14.4-10.6,0,0,18.2,20.6,49,20.3,0,0,4.2,97.9-17.2,115.8-21.4,17.9-50.8,12.1-50.8,12.1v32.9s20.4,4,20.4,4c0,0,1.2,30.5-62.5,43.4-63.7,13-93.5-48.7-76.6-53.8Z"/>
        <path class="st7" d="M261.9,327.9v32.9s-24.9-8.4-42.1-26.9c-14-15-18.1-39.9-19.1-48.5,0-.6.7-.9,1-.3,2.4,4.5,8.6,14.2,21.8,26.6,18.4,17.3,38.4,16.2,38.4,16.2h0Z"/>
        <path class="st1" d="M291.1,235.3c.5-1.8-2.2-2.5-2.8-.8-.9,3-1.7,6.2-1.1,9.4.6,3.1,2.8,5.2,5.3,6.9,2.1,1.4,6,3.6,5,6.8-.4,1.2-1.8,1.7-2.9,2.1-1.3.5-2.6,1-3.7,1.8-1.4,1.1.6,3.2,2,2,1.1-.8,2.5-1.1,3.8-1.6,1.3-.6,2.5-1.4,3.2-2.7,1.5-2.9,0-6.2-2.3-8.1-2.3-2.1-5.9-3.3-7.2-6.3-1.3-3-.2-6.5.7-9.5h0Z"/>
        <ellipse class="st2" cx="309.2" cy="229.2" rx="5.1" ry="7.5"/>
        <ellipse class="st2" cx="256.8" cy="230" rx="5.1" ry="7.5"/>
        <path class="st2" d="M313.5,212.9c-2.8-1.9-6.2-1.3-9.4-1.4-3.2-.1-2.9-1.8-2-3.6.9-1.7,3.8-1.4,9.1,0s7.8,6,7.8,6c.8,2.7-2.6.9-5.5-1Z"/>
        <path class="st2" d="M251.4,212.9c2.8-1.9,6.2-1.3,9.4-1.4,3.2-.1,2.9-1.8,2-3.6-.9-1.7-3.8-1.4-9.1,0s-7.8,6-7.8,6c-.8,2.7,2.6.9,5.5-1Z"/>
        <g>
          <path class="st1" d="M295.4,286.2c1.7-.7.9-3.5-.8-2.8-10.3,4.3-22.6,2.7-31.3-4.4-1.4-1.2-3.5.9-2,2,9.4,7.6,22.8,9.8,34.1,5.1h0Z"/>
          <path class="st1" d="M279.8,299.7c.8,0,1.4-.7,1.4-1.4,0-.4-.2-.8-.4-1-.3-.3-.6-.4-1-.4-1.5,0-2.9-.2-4.4-.3-.8,0-1.4.7-1.4,1.4,0,.4.2.8.4,1,.3.3.6.4,1,.4,1.5,0,2.9.2,4.4.3h0Z"/>
        </g>
        <g>
          <path class="st1" d="M172.8,227.3c-1.8-.2-1.8,2.6,0,2.9,4.7.6,7.1,6.2,7.2,10.3.1,4.8-2.4,9.2-6.5,11.7-1.6,1-.1,3.4,1.4,2.5,5.1-3.1,8.3-8.9,7.8-15-.5-5.7-4-11.6-10-12.4h0Z"/>
          <path class="st1" d="M179.3,246.7c.4.7,1.3.9,2,.5.7-.4.9-1.3.5-2-.6-1.1-1.2-2.2-2.1-3.1-.9-1-2.1-1.6-3.4-2-2.7-.8-5.7-.7-7.6,1.7-.5.6,0,1.6.5,2,.7.4,1.5,0,2-.5,0,0,.3-.3.3-.3,0,0,.4-.2.5-.3.1,0,.7-.2,1-.2,1,0,1.9.1,2.8.4,1.7.6,2.5,2.1,3.4,3.7h0Z"/>
        </g>
      </g>
      <g>
        <path class="st4" d="M41.4,406c13-18.6,73.2-42.2,98.2-51.4,6.8-2.5,11-3.9,11-3.9,0,0,26.2,31.5,70.7,38.6,44.5,7.1,60.9-24.4,60.9-24.4,0,0,4.3,1.3,11,3.5,20.5,6.7,63.2,21.9,73.4,35,13.5,17.5,32.1,121.3,32.1,121.3H19.6s5.3-95,21.8-118.7Z"/>
        <path class="st8" d="M150.6,350.6s26.2,31.5,70.7,38.6c44.5,7.1,60.9-24.4,60.9-24.4,0,0,4.3,1.3,11,3.5-14.1,28.6-42,48-74.1,48s-68.4-25.9-79.6-61.7c6.8-2.5,11-3.9,11-3.9Z"/>
        <g>
          <path class="st6" d="M344.3,436c-.2-1.8-3.1-1.8-2.9,0,.8,6.4,1.6,12.8,2.3,19.1,2.7,22.6,5.3,45.3,7.7,67.9.2,1.8,3.1,1.8,2.9,0-.7-6.4-1.4-12.8-2.1-19.2-2.5-22.6-5.2-45.3-8-67.9h0Z"/>
          <path class="st6" d="M105.3,415.2c-1.6-.9-3.1,1.6-1.4,2.5,5.7,3.1,9.1,8.8,10.9,14.8,2,6.4,2.4,13.2,2.6,19.9.2,7.7,0,15.5-.1,23.2-.2,15.7-.3,31.4-.5,47.1,0,1.8,2.8,1.8,2.9,0,0-9.1.2-18.3.3-27.4,0-8.1.2-16.2.2-24.3,0-7.9.3-15.9-.1-23.9-.7-11.7-3.4-26-14.7-32h0Z"/>
          <path class="st6" d="M334.5,481.4c1.8-.5,1-3.3-.8-2.8-11,3.2-22.2,6.1-33.4,8.6-19.9,4.5-40,7.9-60.3,10.3-20.2,2.4-40.6,3.6-61,3.8-1.8,0-1.8,2.9,0,2.9,11.6-.1,23.1-.6,34.7-1.4,20.4-1.4,40.7-3.9,60.8-7.5,20.2-3.6,40.2-8.2,59.9-13.9h0Z"/>
          <path class="st6" d="M272.5,509.1c1.7-.6,1-3.4-.8-2.8-8,2.9-16.5,4.3-25,4.2-1.8,0-1.8,2.8,0,2.9,8.8.1,17.5-1.3,25.8-4.3h0Z"/>
        </g>
      </g>
    </g>
  </g>
</svg>