<?xml version="1.0" encoding="UTF-8"?>
<svg id="Object" xmlns="http://www.w3.org/2000/svg" xmlns:xlink="http://www.w3.org/1999/xlink" version="1.1" viewBox="0 0 500 500">
  <!-- Generator: Adobe Illustrator 30.1.0, SVG Export Plug-In . SVG Version: 2.1.1 Build 136)  -->
  <defs>
    <style>
      .st0 {
        fill: none;
      }

      .st1 {
        fill: #35356d;
      }

      .st2 {
        fill: #ff4f4d;
      }

      .st3 {
        fill: #ffc9c0;
      }

      .st4 {
        fill: #ffcfcf;
      }

      .st5 {
        clip-path: url(#clippath-1);
      }

      .st6 {
        fill: #e2bab5;
      }

      .st7 {
        fill: #f9e8e5;
      }

      .st8 {
        fill: #e27169;
      }

      .st9 {
        fill: #ffaa9f;
      }

      .st10 {
        clip-path: url(#clippath);
      }
    </style>
    <clipPath id="clippath">
      <circle class="st0" cx="250" cy="250" r="250"/>
    </clipPath>
    <clipPath id="clippath-1">
      <circle class="st0" cx="250" cy="250" r="250"/>
    </clipPath>
  </defs>
  <g class="st10">
    <circle class="st4" cx="250" cy="254.1" r="263.7"/>
  </g>
  <g class="st5">
    <g>
      <g>
        <g>
          <rect class="st9" x="207.8" y="280.2" width="85.1" height="110.4"/>
          <ellipse class="st9" cx="157.1" cy="237.1" rx="21.1" ry="25.7" transform="translate(-44.8 36.7) rotate(-11.7)"/>
          <g>
            <path class="st8" d="M149.2,225c4.8.9,7.8,5.1,9.3,9.5,1.6,5.1,1.9,10.6,1.3,15.9-.2,1.8,2.6,1.8,2.9,0,.7-5.9.3-12.2-1.8-17.8-1.8-4.9-5.5-9.4-10.9-10.4-1.8-.3-2.6,2.4-.8,2.8h0Z"/>
            <path class="st8" d="M160.1,235.1c-.4,0-.5,0-.9-.1-.3,0-.6-.1-1-.2-.7-.2-1.5-.3-2.2-.3-1.7,0-3.1.6-4.2,1.8-2,1.9-3.2,4.8-2.6,7.6.2.8,1,1.2,1.8,1,.8-.2,1.2-1,1-1.8,0-.1,0-.3,0-.4,0,.2,0,0,0-.1,0-.3,0-.5,0-.8,0-.4,0,.2,0-.2,0-.1,0-.2,0-.4,0-.3.1-.5.2-.8,0,.2,0-.2,0-.2,0-.1.1-.2.2-.3.1-.2.3-.5.4-.7.2-.3.5-.7.9-1.1.8-.7,1.5-.9,2.6-.8-.2,0,.1,0,.2,0,.1,0,.3,0,.4,0,.3,0,.6.1.9.2.7.1,1.4.3,2.1.3.7,0,1.5-.7,1.4-1.4,0-.8-.6-1.4-1.4-1.4h0Z"/>
          </g>
          <ellipse class="st9" cx="342.7" cy="237.1" rx="25.7" ry="21.1" transform="translate(41.1 524.7) rotate(-78.3)"/>
          <g>
            <path class="st8" d="M349.8,222.2c-5.4,1-9,5.5-10.9,10.4-2.1,5.6-2.5,11.9-1.8,17.8.2,1.8,3.1,1.8,2.9,0-.7-5.3-.4-10.8,1.3-15.9,1.4-4.4,4.4-8.6,9.3-9.5,1.8-.3,1-3.1-.8-2.8h0Z"/>
            <path class="st8" d="M339.6,238c.7,0,1.3-.1,2-.3.3,0,.6-.1.9-.2.1,0,.3,0,.4,0,0,0,.4,0,.3,0,.3,0,.6,0,.9,0,.1,0,.3,0,.4,0-.2,0,.2,0,.2,0,.5.1.8.4,1.2.7.4.4.7.7.9,1.1.1.2.3.4.4.6,0,.1.1.3.2.4,0,0,.2.4,0,.2,0,.2.2.5.2.7,0,.1,0,.3,0,.4,0,.2,0,0,0,.1,0,.3,0,.5,0,.8,0,0,0,.5,0,.2,0,.1,0,.3,0,.4-.2.7.2,1.6,1,1.8.7.2,1.6-.2,1.8-1,.7-2.8-.5-5.7-2.6-7.6-1.2-1.1-2.5-1.8-4.2-1.8-.8,0-1.5.2-2.3.3-.3,0-.6.1-1,.2-.4,0-.5,0-.9.1-.7,0-1.5.6-1.4,1.4,0,.7.6,1.5,1.4,1.4h0Z"/>
          </g>
          <path class="st3" d="M285.3,321h-69.9c-27.2,0-49.2-22-49.2-49.2v-124.8h168.2v124.8c0,27.2-22,49.2-49.2,49.2Z"/>
          <path class="st2" d="M338.5,207.9c-.4,2.7-2.8,4.7-5.5,4.7s-5.6-2.5-5.6-5.6v-46.5c0-.9-1-1.3-1.7-.8-5.1,3.7-23.6,13.7-75.3,13.7s-70.2-10-75.3-13.7c-.7-.5-1.6,0-1.6.8v46.3c0,2.7-1.9,5.2-4.6,5.7-3.1.6-6-1.6-6.5-4.6-2.5-14.8-8.5-61.2,7.5-90.3,7.6-13.9,21.8-22.8,36.2-28.5,28.4-11.3,60.2-11.3,88.6,0,14.4,5.7,28.6,14.6,36.2,28.5,16.1,29.1,10,75.6,7.5,90.3Z"/>
          <g>
            <ellipse class="st1" cx="212.6" cy="217.1" rx="5.7" ry="9"/>
            <ellipse class="st1" cx="287.1" cy="217.1" rx="5.7" ry="9"/>
          </g>
          <path class="st8" d="M246.1,218c.5,1.8,1,3.7.9,5.6-.1,1.9-.8,3.6-1.6,5.3-1.6,3.3-3.6,6.4-5.9,9.3-1.9,2.4-4,5.4-2.6,8.6.7,1.5,1.9,2.7,3.1,3.9,1.3,1.3,2.7,2.4,4.1,3.5,1.5,1.1,2.9-1.4,1.4-2.5-1.3-1-2.6-2.2-3.8-3.4-1-1-2.4-2.2-2.4-3.7,0-1.5,1.1-3,2-4.1,1-1.3,2.1-2.6,3-4,1.9-2.8,3.7-5.9,4.8-9.1,1.2-3.5.7-6.7-.3-10.2-.5-1.8-3.2-1-2.8.8h0Z"/>
          <g>
            <path class="st1" d="M199.5,200.9c-.6.2-1-.4-.7-1,1.2-2.1,4.4-5.9,11.8-5.9s16.1,5.9,14.6,8.2c-1.6,2.3-5.6-3.4-14-3.1-5.7.2-9.7,1.1-11.7,1.6Z"/>
            <path class="st1" d="M275.5,200.9c-.6.2-1-.4-.7-1,1.2-2.1,4.4-5.9,11.8-5.9s16.1,5.9,14.6,8.2-5.6-3.4-14-3.1c-5.7.2-9.7,1.1-11.7,1.6Z"/>
          </g>
          <path class="st2" d="M328.7,320.5c-6.2,5.6-14.2,10.3-22.7,14.2-35.5,16.1-76.4,16.1-111.9,0-8.5-3.9-16.5-8.5-22.7-14.2-24.6-22.5-6.6-77-6.6-77l-3.2-40.6s-4.6-36.9-1.5-48.8c3.1-11.9,15.7-11.3,15.7,5.6v93.3s48.3-9.9,74.2,8.2c25.9-18.1,74.2-8.2,74.2-8.2v-93.3c0-16.9,12.6-17.5,15.7-5.6,3.1,11.9-1.5,48.8-1.5,48.8l-3.2,40.6s18.1,54.5-6.5,77Z"/>
          <path class="st3" d="M257.6,272.3c-6,1.4-12,1.3-18.1.2-12.1-2.2-19,4.7-14.6,14.5,4.4,9.8,27.1,15.6,40.8,9.1,7.1-3.4,16-17.6,7.3-23.9-3.6-2.6-8.3-1.9-12.3-.7-1,.3-2.1.6-3.1.9Z"/>
          <path class="st8" d="M230.2,281.5c5.9,4.2,13.1,6.3,20.3,6.5,3.6.1,7.2-.2,10.7-1,3.6-.8,7.4-1.8,10.1-4.5,1.3-1.3-.7-3.3-2-2-2.4,2.4-6,3.2-9.2,3.8-3.3.7-6.6.9-9.9.8-6.6-.3-13.1-2.3-18.5-6.1-1.5-1.1-2.9,1.4-1.4,2.5h0Z"/>
        </g>
        <g>
          <ellipse class="st7" cx="252.5" cy="63.8" rx="20.4" ry="20.5"/>
          <path class="st1" d="M159,161.1s-6.8-101.5,93.6-101.5,89.4,106.3,89.4,106.3l-182.9-4.8Z"/>
          <path class="st7" d="M148.1,168.6l4,16.3c1.2,5,6.4,7.8,11.2,6.2,16.1-5.3,52.3-15.4,96-15.4s67.7,10.7,80.5,17.4c4.7,2.5,10.5.1,12.3-4.9l4.7-13.6c1.1-3.2.3-6.8-2.2-9.2-9.9-9.6-40.2-32.2-104.9-32.2s-90.4,18.6-99.2,26.9c-2.3,2.2-3.2,5.4-2.5,8.5Z"/>
          <g>
            <path class="st6" d="M168.4,148.2c-2,13-1.7,26.2.8,39,.4,1.8,3.1,1,2.8-.8-2.4-12.3-2.7-25.1-.8-37.5.3-1.8-2.5-2.6-2.8-.8h0Z"/>
            <path class="st6" d="M190.4,142.2c.2,12.5.4,25.1.6,37.6,0,1.8,2.9,1.8,2.9,0-.2-12.5-.4-25.1-.6-37.6,0-1.8-2.9-1.8-2.9,0h0Z"/>
            <path class="st6" d="M220.3,135.3c1.7,13.9,2.4,27.8,2.1,41.8,0,1.8,2.8,1.8,2.9,0,.3-14-.4-27.9-2.1-41.8-.2-1.8-3.1-1.8-2.9,0h0Z"/>
            <path class="st6" d="M251.1,134.4c2.6,12.7,3.4,25.6,2.3,38.5-.2,1.8,2.7,1.8,2.9,0,1.1-13.1.3-26.4-2.4-39.3-.4-1.8-3.1-1-2.8.8h0Z"/>
            <path class="st6" d="M281,137.9c1.6,11.7,1.4,23.7-.6,35.3-.3,1.8,2.4,2.6,2.8.8,2.1-12.2,2.3-24.6.6-36.8-.3-1.8-3-1-2.8.8h0Z"/>
            <path class="st6" d="M310.5,142.6c2.1,12.6.2,25.7-5.4,37.2-.8,1.7,1.7,3.1,2.5,1.4,5.9-12.2,7.9-26,5.7-39.4-.3-1.8-3.1-1-2.8.8h0Z"/>
            <path class="st6" d="M334.2,151.7c2,12.4.4,25.2-4.2,36.8-.7,1.7,2.1,2.5,2.8.8,4.8-12.1,6.2-25.4,4.2-38.3-.3-1.8-3-1-2.8.8h0Z"/>
          </g>
        </g>
      </g>
      <path class="st7" d="M315.7,481.5c-.6,6.6-2,12.8-4.1,18.5h-140.2c.3-49.1,6.5-110.5,11.3-150.6l25.6-6.9c-3,34.4,26,40,41.6,40.6h0c15.6-.6,44.7-6.2,41.6-40.6l21.8,5.9c3.2,30,6.8,80.9,2.2,133.1Z"/>
      <path class="st1" d="M182.7,349.4c-4.8,40.1-11,101.5-11.3,150.6H50.9l20.3-82c6.3-25.5,27-45.9,53.9-53.1l57.6-15.5Z"/>
      <path class="st1" d="M315.7,481.5c4.6-52.2,1-103.1-2.2-133.1l61.4,16.5c27,7.2,47.6,27.6,53.9,53.1l20.3,82h-137.5c2.1-5.8,3.5-12,4.1-18.5Z"/>
      <g>
        <path class="st6" d="M179,422.6c23.5,15,48.4,27.8,74.3,38,7.3,2.9,14.7,5.6,22.1,8.1,1.8.6,2.5-2.2.8-2.8-26.2-8.8-51.5-20-75.6-33.6-6.8-3.9-13.5-7.9-20.1-12.2-1.6-1-3,1.5-1.4,2.5h0Z"/>
        <path class="st6" d="M192.2,472.2c18.7-.3,37.4.2,56.1,1.6,5.3.4,10.7.9,16,1.4,1.8.2,1.8-2.7,0-2.9-18.6-1.9-37.3-2.9-56.1-3.1-5.3,0-10.7,0-16,0-1.8,0-1.8,2.9,0,2.9h0Z"/>
      </g>
    </g>
  </g>
</svg>